<svg width="1440" height="387" viewBox="0 0 1440 387" fill="none" xmlns="http://www.w3.org/2000/svg"><path d="M0 107.553c33.342 0 68.04 2.926 100.762-5.305 10.504-2.643 21.869-6.28 32.499-7.547 16.645-1.983 35.897-1.701 51.5-8.302 18.186-7.693 37.977-17.357 57.999-17.357 9.5 0 9 .377 17 0 10.49-.495 20.193-4.623 30.5-6.038 16.239-2.228 32.272-8.209 48.5-9.433 13.757-1.039 27.705-3.5 41.499-4.151 15.566-.734 29.434 3.276 44.5 4.15 34.16 1.984 69.444 1.626 103.499-1.869 14.999-1.54 30.212-5.693 45-6.81 5-.377 35.999-4.15 35.999-4.15 9.018-.678 21.82-2.986 30.5-.336 21.372 5.887 20.5 5.996 26.5 6.374 13.567.853 27.035 4.498 40.499 4.922 11.5.362 17.5 0 17.5 0s17 2.624 27 3.002c26.276.991 47.529 22.223 75.499 18.146 8-1.166 7-1.543 15.5-1.543 16.332 0 37.674 6.921 53 1.543 21.123-7.413 41.702-17.566 62.999-24.184 8.5-2.641 18-6.414 22.5-7.547 13.689-3.443 27.106-11.3 40.996-13.207 31.92-4.378 69.87-11.697 102.5-11.697 5 0 15.5-1.132 20.5-1.887 5-.755 7.5-3.018 11.5-3.773 4-.755 7-3.019 12-3.396 31.04-2.343 63.27-2.245 94.5-1.983 11.5.096 14-2.168 29.5-2.923 15.5-.754 19.5-1.132 32-1.132 11.08 0 23.1-1.86 34-.336 26.88 3.759 54.73-2.141 81.75-.483V387H.02L0 107.555" fill="#183B65"/></svg>