<svg width="36" height="36" viewBox="0 0 36 36" fill="none" xmlns="http://www.w3.org/2000/svg">
<path d="M21.0007 3.40332V9.59913C21.0007 10.4392 21.0007 10.8592 21.1642 11.1801C21.308 11.4624 21.5375 11.6918 21.8197 11.8356C22.1406 11.9991 22.5607 11.9991 23.4007 11.9991H29.5965M21.0007 2.99902H13.2007C10.6805 2.99902 9.42038 2.99902 8.45777 3.48949C7.61105 3.92092 6.92263 4.60934 6.4912 5.45607C6.00073 6.41867 6.00073 7.67879 6.00073 10.199V25.799C6.00073 28.3193 6.00073 29.5794 6.4912 30.542C6.92263 31.3887 7.61105 32.0771 8.45777 32.5086C9.42038 32.999 10.6805 32.999 13.2007 32.999H22.8007C25.321 32.999 26.5811 32.999 27.5437 32.5086C28.3904 32.0771 29.0788 31.3887 29.5103 30.542C30.0007 29.5794 30.0007 28.3193 30.0007 25.799V11.999L21.0007 2.99902Z" stroke="url(#paint0_linear_3408_766)" stroke-width="1.5" stroke-linecap="round" stroke-linejoin="round"/>
<path d="M24.001 19.499C19.3147 19.499 16.6873 19.499 12.001 19.499M24.001 25.499C24.001 25.499 16.6873 25.499 12.001 25.499M15.001 13.499C13.8294 13.499 12.001 13.499 12.001 13.499" stroke="#183B65" stroke-width="1.5" stroke-linecap="round" stroke-linejoin="round"/>
<defs>
<linearGradient id="paint0_linear_3408_766" x1="18.0007" y1="2.99902" x2="18.0007" y2="32.999" gradientUnits="userSpaceOnUse">
<stop stop-color="#00B4E5"/>
<stop offset="1" stop-color="#2DD9C3"/>
</linearGradient>
</defs>
</svg>
