<svg width="36" height="36" viewBox="0 0 36 36" fill="none" xmlns="http://www.w3.org/2000/svg">
<path d="M21.0002 16.5H12.0002M15.0002 22.5H12.0002M24.0002 10.5H12.0002M30.0002 15.75V10.2C30.0002 7.67976 30.0002 6.41965 29.5098 5.45704C29.0783 4.61031 28.3899 3.9219 27.5432 3.49047C26.5806 3 25.3205 3 22.8002 3H13.2002C10.68 3 9.41989 3 8.45729 3.49047C7.61056 3.9219 6.92214 4.61031 6.49071 5.45704C6.00024 6.41965 6.00024 7.67976 6.00024 10.2V25.8C6.00024 28.3202 6.00024 29.5804 6.49071 30.543C6.92214 31.3897 7.61056 32.0781 8.45729 32.5095C9.41989 33 10.68 33 13.2002 33H17.2502" stroke="url(#paint0_linear_3408_773)" stroke-width="1.5" stroke-linecap="round" stroke-linejoin="round"/>
<path d="M33 33L30.75 30.75M32.25 27C32.25 29.8995 29.8995 32.25 27 32.25C24.1005 32.25 21.75 29.8995 21.75 27C21.75 24.1005 24.1005 21.75 27 21.75C29.8995 21.75 32.25 24.1005 32.25 27Z" stroke="#183B65" stroke-width="1.5" stroke-linecap="round" stroke-linejoin="round"/>
<defs>
<linearGradient id="paint0_linear_3408_773" x1="18.0002" y1="3" x2="18.0002" y2="33" gradientUnits="userSpaceOnUse">
<stop stop-color="#00B4E5"/>
<stop offset="1" stop-color="#2DD9C3"/>
</linearGradient>
</defs>
</svg>
