<svg width="36" height="36" viewBox="0 0 36 36" fill="none" xmlns="http://www.w3.org/2000/svg">
<path d="M2.99902 10.501L9.12271 14.7876L15.2464 19.0741C16.2382 19.7684 16.734 20.1155 17.2734 20.2499C17.7499 20.3687 18.2482 20.3687 18.7246 20.2499C19.264 20.1155 19.7599 19.7684 20.7516 19.0741L26.8753 14.7876C26.8753 14.7876 30.6076 12.175 32.999 10.501" stroke="#183B65" stroke-width="1.5" stroke-linecap="round" stroke-linejoin="round"/>
<path d="M2.99927 13.201C2.99927 10.6807 2.99927 9.42062 3.48974 8.45802C3.92117 7.61129 4.60958 6.92288 5.45631 6.49145C6.41891 6.00098 7.67903 6.00098 10.1993 6.00098H25.7993C28.3195 6.00098 29.5796 6.00098 30.5422 6.49145C31.389 6.92288 32.0774 7.61129 32.5088 8.45802C32.9993 9.42062 32.9993 10.6807 32.9993 13.201V22.801C32.9993 25.3212 32.9993 26.5813 32.5088 27.5439C32.0774 28.3907 31.389 29.0791 30.5422 29.5105C29.5796 30.001 28.3195 30.001 25.7993 30.001H10.1993C7.67903 30.001 6.41891 30.001 5.45631 29.5105C4.60958 29.0791 3.92117 28.3907 3.48974 27.5439C2.99927 26.5813 2.99927 25.3212 2.99927 22.801V13.201Z" stroke="url(#paint0_linear_3408_780)" stroke-width="1.5" stroke-linecap="round" stroke-linejoin="round"/>
<defs>
<linearGradient id="paint0_linear_3408_780" x1="17.9993" y1="6.00098" x2="17.9993" y2="30.001" gradientUnits="userSpaceOnUse">
<stop stop-color="#00B4E5"/>
<stop offset="1" stop-color="#2DD9C3"/>
</linearGradient>
</defs>
</svg>
