<svg width="1440" height="204" viewBox="0 0 1440 204" fill="none" xmlns="http://www.w3.org/2000/svg">
<path fill-rule="evenodd" clip-rule="evenodd" d="M1440 0H0V157.578C20.5664 155.714 36.4453 156.147 56.6758 161.31C72.4453 165.335 89.4102 166.066 106.34 166.796C118.344 167.313 130.328 167.83 141.859 169.52C159.652 172.126 177.32 176.615 194.891 181.078C201.621 182.788 208.336 184.494 215.039 186.089C243.715 192.917 276.652 193.511 305.25 186.089C313.262 184.01 321.113 181.535 328.957 179.061C339.199 175.832 349.43 172.605 360.008 170.266C362.082 169.808 366.984 167.942 373.277 165.546C387.477 160.141 408.762 152.04 420.609 151.333C442.223 150.047 466.168 156.29 489.391 162.345C502.461 165.752 515.301 169.101 527.367 171.012C547.348 174.178 566.488 173.025 586.168 171.84C591.086 171.544 596.039 171.246 601.047 171.012C631.602 169.588 660.887 170.827 690.789 176.983C706.457 180.209 722.961 180.566 739.469 180.923C751.898 181.192 764.332 181.461 776.418 182.954C789.285 184.543 801.789 187.881 814.293 191.219C826.512 194.481 838.734 197.744 851.301 199.375C868.664 201.628 886.133 200.657 903.574 199.688C913.121 199.158 922.66 198.628 932.164 198.628C940.008 198.628 944.227 198.628 948.426 198.926C954.59 199.363 960.703 200.443 978.164 203.106C1000.1 206.454 1022.56 197.74 1043.87 189.472C1053.44 185.757 1062.79 182.132 1071.74 179.732C1078.69 177.87 1086.01 175.262 1093.43 172.618C1106.01 168.135 1118.88 163.549 1130.74 162.317C1145.62 160.772 1161.41 156.677 1177.33 152.545C1199.91 146.688 1222.77 140.757 1243.74 141.916C1261.34 142.889 1283.14 135.875 1303.54 129.306C1317.95 124.667 1331.67 120.251 1342.74 119.027C1347.52 118.499 1352.76 116.58 1358.28 114.561C1368.09 110.973 1378.77 107.066 1389.24 110.071C1411 116.32 1429.5 117.875 1440 114.98V0Z" fill="#f8fafc"/>
</svg>
