<svg width="1626" height="551" viewBox="0 0 1626 551" fill="none" xmlns="http://www.w3.org/2000/svg">
<g clip-path="url(#clip0_1_80)">
<path d="M-81.7164 339.402C-81.7164 339.402 -75.2915 341.543 -72.079 339.402C-68.8665 337.261 -66.7249 336.191 -61.3707 334.05C-56.0166 331.909 -49.5917 336.191 -44.2376 334.05C-38.8834 331.909 -38.8834 331.743 -30.3168 333.432C-21.7503 335.12 -22.8211 336.453 -17.467 336.322C-12.1128 336.191 -15.3253 336.453 -0.333771 336.322C14.6578 336.191 13.5869 338.594 24.2952 336.322C35.0034 334.05 39.2867 338.024 48.9241 332.289C58.5616 326.556 59.6324 338.265 67.1281 327.592C74.6239 316.919 68.199 323.342 74.6239 316.919C81.0488 310.497 81.0488 306.215 87.4738 300.862C93.8987 295.51 91.7571 299.412 99.2529 294.249C106.749 289.087 101.395 288.017 113.174 280.523C124.953 273.03 122.811 273.03 130.307 273.03C137.803 273.03 136.732 271.959 146.369 273.03C156.007 274.1 152.794 263.513 162.431 272.554C172.069 281.594 176.352 289.775 181.706 294.249C187.06 298.721 202.052 298.727 210.619 304.612C219.185 310.497 220.256 308.356 225.61 312.638C230.964 316.919 229.893 319.06 236.318 322.272C242.743 325.483 241.672 321.236 249.168 327.64C256.664 334.044 254.522 332.738 262.018 340.35C269.514 347.961 277.01 351.172 282.364 355.454C287.718 359.736 289.86 364.018 297.355 369.37C304.851 374.723 315.704 381.713 320.913 380.075C348.527 371.391 345.716 367.644 355.354 372.996C364.991 378.349 374.093 364.031 377.841 370.989C381.589 377.947 401.798 373.154 408.758 375.806C415.719 378.459 434.456 385.441 437.668 388.652C440.881 391.864 451.321 387.448 460.958 393.871C470.596 400.294 482.908 387.046 488.262 390.258C493.616 393.469 505.529 391.596 511.954 392.666C518.379 393.737 529.218 398.955 538.856 404.308C548.493 409.66 547.422 434.546 554.918 438.828C562.414 443.11 557.729 476.158 557.729 476.158L496.529 594.997H-81.9761L-81.7164 339.397V339.402Z" fill="#164476"/>
<path d="M-81.9976 480.202H-18.2996C-18.2996 480.202 17.3348 479.635 18.941 478.029C20.5472 476.423 19.4764 474.818 25.9014 472.677C32.3263 470.536 35.5388 470 38.2158 469.465C40.8929 468.93 39.8221 473.212 45.1762 469.465C50.5303 465.718 50.5303 463.578 60.7031 461.972C70.876 460.366 75.1593 460.901 82.1196 458.76C89.08 456.619 91.757 456.084 99.7882 454.478C107.819 452.873 108.93 454.074 115.851 450.197C122.771 446.319 119.598 446.45 126.023 443.238C132.448 440.027 131.913 439.492 138.873 437.351C145.834 435.21 142.621 435.21 150.117 433.604C157.613 431.998 157.613 430.928 163.502 428.787C169.392 426.646 167.786 425.576 177.958 425.576C188.131 425.576 187.596 426.111 196.162 425.576C204.729 425.04 203.658 424.505 213.296 421.829C222.933 419.153 217.043 419.153 228.823 417.012C240.602 414.871 234.177 415.406 246.491 413.265C258.806 411.124 260.412 410.589 266.837 408.448C273.262 406.307 270.049 404.701 280.758 403.631C291.466 402.56 289.324 405.237 297.355 403.631C305.386 402.025 307.528 401.535 311.811 400.979C316.095 400.422 316.63 398.278 325.197 397.743C333.763 397.208 330.551 396.673 340.188 397.208C349.826 397.743 341.795 396.137 354.644 398.814C367.494 401.49 358.928 402.56 372.848 403.631C386.769 404.701 391.052 406.307 399.619 405.237C408.186 404.166 401.225 397.789 413.54 400.979C425.854 404.169 417.823 405.237 432.815 406.307C447.806 407.378 442.452 408.983 456.373 406.842C470.293 404.701 475.648 402.071 483.679 400.979C491.71 399.887 493.316 396.766 499.206 396.986C505.095 397.205 507.772 398.905 514.733 396.986C521.693 395.067 526.512 391.856 531.866 391.32C537.22 390.785 570.415 385.433 570.415 385.433C570.415 385.433 583.857 384.095 589.69 385.433C595.58 384.897 593.885 381.239 603.076 384.956C625.962 393.306 625.027 393.461 631.452 393.997C637.877 394.532 642.161 393.997 645.909 394.532C649.656 395.067 655.011 396.137 660.9 397.743C666.79 399.349 662.506 400.465 674.821 400.979C687.135 401.493 693.56 400.979 693.56 400.979C693.56 400.979 711.764 404.701 722.473 405.237C733.181 405.772 746.031 416.477 746.031 416.477C746.031 416.477 754.062 421.294 757.274 422.364C760.487 423.435 760.487 425.576 767.447 426.646C774.407 427.717 776.549 432.092 785.116 430.976C793.682 429.858 794.753 432.63 803.32 430.976C811.886 429.322 810.815 428.787 819.917 428.787C829.019 428.787 825.272 431.557 837.051 430.976C848.83 430.393 848.83 429.954 857.932 430.976C867.034 431.998 862.75 437.447 876.671 430.976C890.592 424.505 895.946 422.899 902.906 419.153C909.867 415.406 920.575 408.983 925.929 406.307C931.283 403.631 935.031 400.419 944.133 396.673C953.235 392.926 963.408 387.574 968.227 385.968C973.045 384.362 982.683 380.616 989.108 377.404C995.533 374.193 1006.24 368.305 1012.13 367.235C1018.02 366.164 1032.48 366.164 1034.08 367.235C1035.69 368.305 1038.37 369.376 1049.07 366.432C1059.78 363.488 1059.25 363.488 1067.81 361.347C1076.38 359.206 1081.73 357.6 1086.02 357.065C1090.3 356.53 1098.87 354.389 1105.29 353.854C1111.72 353.318 1116.54 350.642 1121.89 350.642C1127.24 350.642 1138.49 349.036 1143.84 347.966C1149.2 346.896 1151.87 343.684 1156.16 342.614C1160.44 341.543 1163.65 338.332 1169.01 337.796C1174.36 337.261 1198.99 339.937 1208.63 337.796C1218.26 335.656 1234.33 334.585 1242.36 335.12C1250.39 335.656 1257.88 334.847 1270.2 334.984C1282.51 335.12 1285.19 331.909 1301.79 330.838C1318.39 329.768 1322.67 329.233 1336.05 329.233C1349.44 329.233 1346.76 328.162 1354.79 329.233C1362.83 330.303 1361.22 326.674 1372.46 328.756C1383.71 330.838 1384.24 329.35 1399.77 328.756C1415.3 328.162 1415.3 330.421 1422.26 328.756C1429.22 327.092 1444.74 329.107 1446.35 328.101C1447.96 327.092 1460 328.071 1460 328.071L1460 711H-81.9763L-81.9976 480.205" fill="#164476"/>
<path fill-rule="evenodd" clip-rule="evenodd" d="M1020 366.88V713.186H1809L1871.16 215.703L1863.58 223.557C1863.58 223.557 1855.12 224.085 1851.6 223.565C1849.81 223.301 1847.65 229.933 1845.23 237.399C1842.88 244.627 1840.27 252.637 1837.5 255.935C1831.86 262.64 1826.22 269.345 1817.06 271.022C1807.9 272.698 1800.85 269.345 1795.91 265.993C1795.25 265.542 1794.6 265.091 1793.95 264.644C1789.8 261.768 1785.9 259.062 1780.41 257.611C1779.63 257.405 1778.83 257.198 1778.03 256.989C1772.31 255.497 1765.97 253.846 1758.56 250.906C1755.99 249.889 1753.56 248.719 1751.17 247.572C1745.69 244.939 1740.49 242.434 1734.59 242.227C1730.67 242.089 1727.66 240.702 1724.15 239.086C1720.09 237.217 1715.37 235.042 1707.81 234.143C1699.14 233.112 1694.2 235.883 1689.56 238.491C1686.65 240.126 1683.85 241.696 1680.32 242.227C1675.25 242.989 1671.05 246.074 1667.11 248.963C1663.92 251.3 1660.91 253.509 1657.76 254.259C1650.71 255.935 1634.5 264.316 1634.5 264.316C1634.5 264.316 1612.65 286.108 1609.13 294.44C1606.73 300.103 1604.01 298.864 1599.86 296.973C1597.9 296.082 1595.62 295.047 1592.92 294.519C1588.61 293.68 1586.68 296.735 1584.51 300.155C1582.43 303.449 1580.14 307.082 1575.29 307.905C1568.85 309 1567.82 308.664 1566.7 308.299C1566.1 308.106 1565.48 307.905 1564.02 307.905H1542.87C1537.58 307.905 1536.14 307.905 1534.75 308.163C1533.54 308.386 1532.37 308.803 1528.77 309.581C1523.2 310.787 1518.35 310.258 1514.76 309.866C1513.35 309.713 1512.14 309.581 1511.15 309.581C1509.16 309.581 1505.36 304.607 1500.9 298.774C1497.48 294.3 1493.68 289.321 1490.01 285.694C1485.36 281.103 1485.29 269.937 1485.24 261.352C1485.2 254.308 1485.17 249.003 1482.63 250.491C1476.99 253.793 1455.47 239.595 1449.13 234.566C1442.78 229.537 1379 162.38 1372 154C1365 145.62 1349.5 142.678 1336.93 151.589C1331.13 157.01 1326.04 164.278 1320.78 171.773C1313.4 182.297 1305.71 193.268 1295.34 200.202C1290.69 203.312 1286.29 209.918 1281.63 216.924C1274.03 228.339 1265.73 240.816 1254.46 240.961C1251.4 241.001 1247.23 240.558 1242.71 240.079C1232.92 239.039 1221.48 237.823 1216.05 240.961C1207.09 246.136 1183.51 243.997 1173.4 242.227C1165.39 240.825 1150.53 257.587 1137.79 271.95C1130.18 280.534 1123.33 288.26 1119.15 290.743C1114.09 293.75 1109.77 297.729 1105.44 301.706C1099.26 307.392 1093.08 313.072 1084.79 315.888C1073.05 319.877 1061.64 331.498 1050.41 342.926C1041.69 351.806 1033.09 360.571 1024.53 365.549C1022.83 366.539 1021.33 366.937 1020 366.88Z" fill="#164476"/>
<path d="M1315.97 436.274C1315.97 436.274 1308.49 437.904 1302.34 436.274C1296.2 434.644 1279.81 424.864 1279.81 424.864H1255.22C1255.22 424.864 1240.87 430.478 1222.43 430.932C1203.99 431.386 1199.89 428.848 1189.65 430.932C1179.41 433.016 1171.21 432.834 1165.06 437C1158.91 441.165 1152.77 439.353 1130.23 437C1107.69 434.646 1105.64 426.495 1091.3 424.864C1076.96 423.234 1085.15 428.125 1062.62 424.864C1040.08 421.604 1048.27 419.973 1023.68 424.864C999.096 429.755 990.902 431.513 978.609 430.633C966.316 429.753 951.974 433.141 939.678 430.633C927.386 428.122 917.262 431.513 906.957 430.633C896.652 429.753 890.504 436.184 874.113 439.489C863.185 441.691 854.307 444.423 847.478 447.684C837.235 452.575 822.889 452.575 804.452 447.684C786.015 442.793 753.271 433.281 739 419.779C724.729 406.277 639.5 325.999 599.558 291.436C574.663 269.894 530.658 214.045 496 217.768C481.906 219.282 463 226.779 447 233.779L405.281 253.899L372.047 217.768L353.607 200.152C327.841 182.245 306.536 159.914 287.146 134.951C287.146 134.951 246 82 232.5 82C219 82 211.5 85.0811 199 91.5C186.5 97.9189 154.5 122 139 134.951C116.5 111.5 18 22 0.5 0C-9.91064 9.7686 -11.9688 264.173 -18.1134 265.803C-24.2581 267.434 -20.1627 269.064 -36.5541 275.583C-52.9454 282.104 -61.1428 294.577 -69.3368 294.859C-77.5342 295.142 -89.8269 289.686 -98.0209 294.859C-106.218 300.033 -124.656 291.884 -134.902 285.362C-145.149 278.841 -151.294 272.322 -159.491 270.692C-167.689 269.062 -169.734 265.801 -175.883 264.17C-182.031 262.54 -167.685 269.062 -182.031 262.54C-196.373 256.019 -219.151 237.351 -219.151 237.351L-237.353 220.159C-237.353 220.159 -257.843 199.195 -263.987 203.972C-270.135 208.749 -269.763 203.798 -294.721 215.27C-319.679 226.742 -321.356 220.569 -329.553 230.96C-337.75 241.351 -327.504 236.462 -347.994 241.351C-368.484 246.239 -374.628 244.611 -388.974 249.5C-403.316 254.391 -382.826 247.869 -403.316 254.391C-423.806 260.912 -411.513 257.652 -442.247 269.062C-472.98 280.471 -495.52 292.944 -507.812 294.859C-520.105 296.772 -524.204 306.356 -536.496 317.051C-548.789 327.747 -548.789 329.374 -559.036 334.265C-569.279 339.156 -595.917 342.414 -608.21 340.787C-620.503 339.159 -659.433 332.638 -659.433 332.638C-659.433 332.638 -669.677 326.116 -677.874 326.116C-686.072 326.116 -722 303.297 -722 303.297V627H1302.34L1315.97 436.274Z" fill="#164476"/>
<path d="M0.000488281 423.296C10.7897 425.466 24.1523 424.895 34.339 428.373C67.7442 439.779 103.7 447.83 138.42 453.757C151.12 455.925 160.085 462.679 169.397 470.723C185.712 487.348 195.093 492.826 219.455 495.203C227.164 495.955 235.975 493.698 245.888 495.955C255.8 498.211 267.916 501.925 277.828 502.701C292.402 503.84 320.951 498.98 334.274 490.878C347.664 482.735 380.364 478.943 396.778 479.275C430.394 479.954 460.305 455.541 495.903 461.444C538.913 468.575 559.121 467.825 596.5 461.444C605.311 459.94 614.257 452.982 624.17 450.726C646.776 445.58 713.863 456.004 744.5 461.444C767.965 465.61 817.131 493.654 842.84 494.452C867.07 495.204 867.07 494.452 885.794 495.204C910.288 496.188 928.791 468.671 954.5 463.804C976.539 459.631 1014.73 437.736 1037.49 434.847C1056.67 432.414 1121.5 417 1146 405.5C1168.8 394.797 1236.63 385.705 1260.52 388.968L1281.45 394.797C1310.06 407.087 1305.84 404.358 1329.91 400.25C1349.31 396.939 1355.98 398.182 1375.62 398.182C1378.92 398.182 1386.63 397.429 1386.63 397.429C1413.89 387.407 1416.31 399.157 1437.3 408.711C1453.96 416.296 1473.2 423.279 1491.26 423.753C1519.9 424.506 1529.81 423.001 1535.32 424.506C1540.83 426.01 1532.01 423.001 1540.83 426.01C1549.64 429.018 1567.26 432.779 1572.77 433.531C1578.27 434.283 1583.23 435.599 1583.23 435.599C1583.23 435.599 1590.39 434.042 1597 438.299C1603.6 442.556 1595.89 438.796 1603.6 442.556C1611.31 446.317 1614.62 447.069 1617.92 448.573C1621.23 450.078 1626.46 454.59 1626.46 454.59V649.5L0.000488281 649.499V423.296Z" fill="#F8FAFC"/>
<path d="M-105.748 396.415C-105.748 396.415 -99.5146 398.606 -96.398 396.415C-79.2973 384.392 -61.0899 393.719 -43.4173 393.262C-5.12556 392.273 23.2307 397.336 45.9229 373.405C54.4568 364.405 59.5782 357.642 69.8162 350.204C79.4049 343.237 84.3909 328.487 99.9425 328.487C107.214 328.487 106.176 327.391 115.525 328.487C135.188 330.791 132.172 334.656 149.807 350.204C166.617 365.015 197.246 368.146 215.254 384.377C225.994 394.058 236.335 403.458 247.458 412.843C252.652 417.225 254.729 421.607 262.001 427.085C269.273 432.563 279.802 439.717 284.856 438.041C347.128 417.381 409.97 440.343 470.19 450.927C476.423 452.023 486.939 457.364 496.288 462.842C505.638 468.319 504.599 493.788 511.871 498.171C519.143 502.553 514.598 536.376 514.598 536.376L455.225 658H-106L-105.748 396.415Z" fill="#F8FAFC"/>
<path d="M918.232 322.709C917.682 319.055 917.561 320.411 916.275 318.172C914.989 315.933 915.11 316.108 914.807 315.34C914.54 314.677 914.474 313.695 913.95 312.638C913.965 312.543 913.985 312.473 914.005 312.374C914.691 308.325 910.747 305.438 910.01 305.084C909.914 305.039 909.793 304.999 909.662 304.975C908.951 303.519 909.198 303.967 908.931 303.608C908.628 303.195 908.32 302.546 907.463 301.489C906.605 300.427 904.093 300.073 901.647 299.246C899.195 298.423 895.705 298.832 894.605 298.712C893.657 298.613 892.305 298.468 891.009 298.842C890.978 298.707 890.988 298.578 891.069 298.463C891.422 297.949 891.801 297.436 892.194 296.952C892.426 296.668 892.628 296.464 892.618 296.095C892.613 295.845 892.653 295.606 892.714 295.367C893.566 293.442 893.823 290.83 892.335 286.811C891.14 284.503 885.712 280.843 879.155 284.652C878.569 284.832 878.66 285.171 878.035 284.971C877.409 284.772 872.431 284.134 872.204 284.288C871.735 284.782 871.402 284.817 872.718 286.003C873.354 287.808 874.408 291.169 876.138 291.877C876.153 291.946 876.168 292.021 876.173 292.106C876.264 293.003 875.881 293.811 875.775 294.664C875.699 295.272 875.609 295.786 875.099 296.224C874.635 296.628 874.514 297.974 874.872 298.189C875.709 298.677 875.573 299.42 875.498 300.153C875.462 300.482 875.392 300.816 875.467 301.14C875.709 302.207 875.508 303.299 875.755 304.381C875.982 305.378 876.33 306.161 877.334 306.55C877.798 306.73 878.045 308.106 877.677 308.44C877.606 308.505 877.49 308.539 877.394 308.549C876.416 308.629 875.543 309.098 874.61 309.347C874.05 309.492 873.515 309.786 873.152 310.265C872.859 310.643 872.496 310.788 872.032 310.833C869.777 311.072 868.168 312.064 867.164 314.238C865.924 316.916 864.955 319.713 863.603 322.345C863.094 323.337 862.882 324.454 862.483 325.496C861.777 327.371 861.253 329.311 860.657 331.225C860.309 332.352 859.976 333.484 859.623 334.611C859.462 335.134 859.114 335.358 858.539 335.304C857.979 335.254 857.414 335.348 856.869 335.513C855.739 335.852 854.579 335.937 853.404 335.887C852.909 335.867 852.541 335.712 852.405 335.144C852.274 334.601 851.457 333.947 851.023 334.062C850.387 334.232 850.009 333.913 849.575 333.573C848.935 333.075 848.541 333.1 847.901 333.608C847.603 333.843 847.325 334.102 847.164 334.446C846.528 335.777 846.15 337.223 846.695 338.594C847.088 339.586 847.083 340.499 847.013 341.486C846.982 341.94 847.003 342.398 847.018 342.852C847.018 342.912 847.033 342.957 847.043 343.012L846.962 344.293C846.937 344.662 847.063 345.001 847.28 345.265L847.134 347.599C846.882 347.853 846.715 348.182 846.69 348.556L846.594 350.087C846.569 350.461 846.695 350.8 846.917 351.059L846.791 353.053C846.544 353.308 846.377 353.637 846.352 354.011L846.256 355.541C846.241 355.781 846.291 356.005 846.382 356.204C846.1 356.354 845.918 356.558 845.903 356.783L845.842 357.725C845.822 358.034 846.115 358.313 846.569 358.483L845.827 373.909L845.318 373.824C845.318 373.824 845.03 374.104 845.051 374.617C845.071 375.131 845.081 376.98 845.045 377.18C845.02 377.309 845.318 377.499 845.646 377.658L843.295 426.47C842.821 426.525 842.448 426.689 842.448 426.689C842.448 426.689 842.276 427.487 842.306 428.729C842.337 429.97 842.372 430.638 842.513 430.818C842.579 430.898 842.811 430.922 843.083 430.927L842.907 434.627C842.569 434.727 842.342 434.951 842.301 435.325C842.281 435.495 842.276 435.684 842.306 435.868C841.545 436.028 841.005 436.352 841 436.786C841 437.05 841.747 437.384 842.771 437.514L842.7 439.025C842.7 439.025 842.69 441.323 842.685 441.542C842.624 443.931 843.154 443.397 843.487 443.233C843.815 443.063 843.971 439.528 844.001 439.379C844.001 439.364 844.042 438.72 844.107 437.554C845.187 437.474 845.979 437.145 845.994 436.871C846.009 436.636 845.661 436.183 844.778 435.933C844.798 435.784 844.803 435.624 844.818 435.475C844.859 435.101 844.622 434.851 844.264 434.712C844.324 433.6 844.4 432.314 844.481 430.883C844.723 430.843 844.909 430.798 844.909 430.798C844.909 430.798 844.975 430.499 845.091 429.123C845.207 427.751 845.101 426.859 845.101 426.859C845.101 426.859 844.97 426.789 844.713 426.694C845.444 413.666 846.584 393.194 847.431 377.908C847.613 377.863 847.754 377.798 847.795 377.703C847.911 377.409 848.062 374.403 848.032 374.243C848.017 374.168 847.85 374.079 847.648 374.004C848.067 366.49 848.39 360.722 848.511 358.533C849.01 358.383 849.353 358.114 849.373 357.795L849.429 356.852C849.444 356.623 849.288 356.414 849.02 356.254C849.136 356.055 849.217 355.835 849.232 355.596L849.328 354.065C849.353 353.691 849.227 353.352 849.005 353.093L849.091 351.737C849.323 352.37 849.626 352.864 849.974 353.128C851.003 353.916 852.541 354.315 853.399 354.37C854.256 354.424 855.109 354.594 855.452 353.018C855.795 351.443 855.563 350.481 854.937 349.184C854.443 348.162 853.701 346.228 853.237 344.572C853.58 344.817 853.923 345.056 854.292 345.176C855.623 345.599 856.788 346.317 858.024 346.906C860.037 347.863 862.04 348.87 864.249 349.274C865.026 349.414 865.424 349.783 865.46 350.436C865.53 351.777 865.994 353.058 865.944 354.429C865.868 356.498 866.872 361.031 866.877 361.275C866.932 363.18 866.352 370.918 866.312 372.204C866.156 377.13 866.312 382.056 866.216 386.987C866.181 388.802 866.287 390.632 866.272 392.452C866.246 395.239 866.554 398.041 865.934 400.808C865.777 401.516 865.692 402.264 865.611 402.972C865.465 404.278 865.233 405.574 865.081 406.876C864.763 409.563 864.663 412.275 864.546 414.978C864.466 416.857 864.683 418.767 864.461 420.627C864.082 423.743 864.325 426.819 864.572 429.91C864.582 430.015 864.617 430.115 864.627 430.214C864.673 430.708 864.869 431.027 865.439 431.032C865.752 431.032 865.979 431.162 865.974 431.566C865.939 433.076 865.934 434.587 865.924 436.098C865.919 437.03 865.924 437.025 864.995 437.045C863.084 437.08 861.681 437.888 860.915 439.683C860.667 440.261 860.481 440.844 860.516 441.483C860.541 441.901 860.657 442.22 862.357 442.37C863.815 442.44 865.343 442.465 866.736 442.54C868.774 442.584 870.695 442.385 872.678 442.315C873.409 442.29 874.131 442.186 874.847 442.036C875.321 441.936 875.2 440.809 875.129 440.376C875.099 440.196 875.119 440.007 875.129 439.817C875.26 437.235 875.649 434.672 875.598 432.079C875.588 431.576 875.725 431.107 875.841 430.623C876.088 429.586 876.91 428.853 877.071 427.712C877.424 425.219 877.803 409.005 877.919 406.093C877.924 405.963 877.843 405.809 877.757 405.704C877.424 405.315 877.187 402.109 877.056 400.977C876.95 400.01 876.562 398.908 877.551 398.086C877.626 398.021 877.621 397.851 877.651 397.737C878.151 395.892 878.509 394.007 879.2 392.207C879.467 391.519 880.673 386.823 881.061 385.197C881.596 382.963 882.282 380.775 882.827 378.546C882.882 378.322 882.938 378.077 883.245 378.097C883.513 378.112 883.563 378.332 883.609 378.536C883.967 380.206 884.678 381.762 885.283 383.337C886.161 385.611 899.977 423.523 901.057 425.004C901.551 425.682 901.854 426.525 902.812 426.744C903.074 426.804 903.069 427.073 903.125 427.298C903.387 428.36 904.038 432.164 904.139 432.872C904.184 433.196 904.023 433.41 903.74 433.58C903.221 433.884 902.706 434.208 902.207 434.542C900.845 435.455 899.821 436.561 899.992 438.356C900.27 439.618 901.793 439.972 902.681 439.872C904.794 439.713 910.696 438.112 912.593 436.631C912.89 436.397 912.966 436.113 912.845 435.749C912.512 434.767 912.3 433.764 912.164 432.737C912.073 432.039 912.003 431.341 911.892 430.648C911.634 429.043 911.044 427.497 911.029 425.852C911.029 425.662 910.959 425.483 910.817 425.348C910.57 425.109 910.585 424.939 910.913 424.79C911.786 424.396 912.078 423.698 912.063 422.776C912.043 421.439 911.745 420.158 911.488 418.862C911.175 417.276 910.732 415.726 910.328 414.17C909.652 411.567 906.056 401.75 904.971 399.447C904.678 398.828 904.456 398.18 904.144 397.572C903.004 395.333 902.509 392.91 902.151 390.472C901.909 388.842 901.879 387.167 901.511 385.561C901.218 384.275 901.228 382.953 900.85 381.662C900.577 380.725 900.583 379.678 900.477 378.691C900.199 376.143 899.589 373.64 899.473 371.077C899.458 370.708 899.387 370.344 899.155 370.02C899.064 369.896 899.029 369.706 899.034 369.551C899.054 368.639 898.958 367.747 898.777 366.844C898.519 365.548 898.414 364.222 898.192 362.915C898.161 362.726 898.131 362.586 898.121 362.482L903.559 362.771C904.305 362.686 904.966 362.606 905.465 362.526C908.467 362.053 907.428 362.172 908.346 361.998C909.264 361.818 909.632 362.292 911.776 361.878C913.919 361.464 914.59 360.522 915.998 358.752C917.405 356.987 917.35 354.509 916.548 352.33C916.149 351.243 915.236 350.51 914.308 350.037C914.414 349.508 914.52 348.955 914.631 348.337C915.181 345.21 915.059 345.21 915.059 344.208C915.059 343.206 915.428 342.498 916.099 341.436C916.769 340.379 917.259 338.549 917.935 335.249C918.611 331.948 917.995 328.468 917.995 328.468C917.995 328.468 918.116 327.88 918.424 327.88C918.732 327.88 918.853 327.705 918.974 327.406C919.095 327.112 918.787 326.344 918.237 322.689L918.232 322.709ZM853.152 353.532C852.35 353.587 851.437 353.308 850.983 352.46C850.524 351.617 850.241 350.491 850.413 349.194C850.584 347.898 850.872 344.572 850.756 343.67C850.735 343.515 850.725 343.276 850.715 342.987C851.199 343.296 851.689 343.6 852.183 343.899C852.44 344.886 852.723 345.854 852.985 346.372C853.444 347.275 854.357 350.037 854.302 350.879C854.246 351.722 853.959 353.472 853.157 353.527L853.152 353.532Z" fill="#102441"/>
</g>
<defs>
<clipPath id="clip0_1_80">
<rect width="1626" height="551" fill="white"/>
</clipPath>
</defs>
</svg>
