<svg width="36" height="36" viewBox="0 0 36 36" fill="none" xmlns="http://www.w3.org/2000/svg">
<path d="M29.8149 18.1791C29.8149 25.3698 22.0525 30.5997 19.2281 32.2646L19.228 32.2647C18.9071 32.4539 18.7466 32.5485 18.5201 32.5975C18.3443 32.6356 18.0878 32.6356 17.9121 32.5975C17.6856 32.5485 17.5251 32.4539 17.2041 32.2647L17.2041 32.2646C14.3797 30.5997 6.61719 25.3698 6.61719 18.1791V11.173C6.61719 10.0017 6.61719 9.41606 6.80677 8.91265C6.97425 8.46793 7.2464 8.07112 7.5997 7.75652C7.99962 7.4004 8.54231 7.19477 9.62768 6.78351L17.4015 3.83792C17.703 3.72371 17.8537 3.6666 18.0087 3.64397C18.1462 3.62389 18.2859 3.62389 18.4234 3.64397C18.5785 3.6666 18.7292 3.72371 19.0306 3.83792L26.8045 6.78351C27.8898 7.19477 28.4325 7.4004 28.8324 7.75652C29.1857 8.07112 29.4579 8.46793 29.6254 8.91265C29.8149 9.41606 29.8149 10.0017 29.8149 11.173V18.1791Z" stroke="url(#paint0_linear_3658_126)" stroke-width="1.5" stroke-linecap="round" stroke-linejoin="round"/>
<path d="M13.8672 17.4456L16.7669 20.3756L23.2913 13.7832" stroke="#183B65" stroke-width="1.5" stroke-linecap="round" stroke-linejoin="round"/>
<defs>
<linearGradient id="paint0_linear_3658_126" x1="18.2161" y1="3.62891" x2="18.2161" y2="32.6261" gradientUnits="userSpaceOnUse">
<stop stop-color="#00B4E5"/>
<stop offset="1" stop-color="#2DD9C3"/>
</linearGradient>
</defs>
</svg>
