<svg width="188" height="30" viewBox="0 0 188 30" fill="none" xmlns="http://www.w3.org/2000/svg">
<g clip-path="url(#clip0_1038_516)">
<path d="M43.8075 24.0036C41.3644 24.0036 39.4286 23.3176 38.0002 21.9458C36.5718 20.5739 35.8615 18.5739 35.8692 15.9458V11.256C35.8692 8.64327 36.5834 6.65097 38.0118 5.2791C39.4402 3.90724 41.3721 3.21232 43.8075 3.19434C46.207 3.19434 48.0555 3.86229 49.3528 5.19819C50.6502 6.5341 51.3079 8.35426 51.3258 10.6587V10.8282H48.2661V10.5739C48.318 9.36827 47.9212 8.18615 47.1524 7.25598C46.428 6.39536 45.313 5.96634 43.8075 5.96891C42.3021 5.97148 41.1101 6.43905 40.2314 7.37161C39.3759 8.28362 38.9469 9.56044 38.9443 11.2021V16.0036C38.9443 17.6272 39.3734 18.9053 40.2314 19.8379C41.0895 20.7704 42.2815 21.2367 43.8075 21.2367C45.3104 21.2367 46.4254 20.8077 47.1524 19.9496C47.9152 19.0176 48.3113 17.8391 48.2661 16.6356V16.1423H51.3258V16.5277C51.3258 18.8398 50.6682 20.66 49.3528 21.9882C48.0375 23.3164 46.1891 23.9882 43.8075 24.0036Z" fill="currentColor"/>
<path d="M55.3448 29.3258V26.7516H63.2292C63.761 26.7516 64.0269 26.4664 64.0269 25.8961V21.5493H63.5722C63.3738 21.9655 63.1023 22.3427 62.7707 22.663C62.3675 23.0432 61.8899 23.3358 61.368 23.5223C60.6525 23.7707 59.8977 23.8869 59.1406 23.8653C58.1409 23.8829 57.1544 23.6356 56.2813 23.1485C55.442 22.6754 54.7569 21.9703 54.3082 21.1177C53.8103 20.1569 53.5637 19.0858 53.5915 18.004V9.52615H56.5356V17.7882C56.5356 19.0085 56.8413 19.9077 57.4527 20.4857C58.1559 21.093 59.0687 21.4014 59.9961 21.345C60.5359 21.368 61.0741 21.2723 61.5728 21.0645C62.0716 20.8568 62.5186 20.5421 62.8824 20.1427C63.6262 19.3412 64 18.1812 64 16.6745V9.51074H66.9441V26.4934C66.9617 26.8713 66.9025 27.2488 66.77 27.6032C66.6375 27.9576 66.4346 28.2814 66.1734 28.5551C65.9023 28.8188 65.5794 29.0234 65.2252 29.1561C64.871 29.2887 64.4932 29.3465 64.1156 29.3258H55.3448Z" fill="currentColor"/>
<path d="M83.9459 12.4433C83.4043 11.4079 82.5815 10.5463 81.5721 9.95772C80.5821 9.3842 79.4561 9.0874 78.312 9.09839C77.5273 9.07958 76.7452 9.19559 75.9998 9.44136C75.4393 9.62927 74.9237 9.93102 74.4854 10.3277C74.1279 10.6418 73.82 11.0082 73.5721 11.4144H73.1135V3.58008H70.1655V23.6186H73.0518V21.6148H73.5104C73.9257 22.281 74.4821 22.848 75.1405 23.2756C75.8842 23.7689 76.9401 24.0194 78.312 24.0194C79.4601 24.0293 80.5891 23.7256 81.5772 23.1408C82.5654 22.5561 83.375 21.7126 83.9189 20.7015C84.556 19.4971 84.8707 18.1483 84.8322 16.7863V16.3547C84.872 14.9969 84.567 13.6512 83.9459 12.4433ZM81.8572 16.6822C81.8572 18.2082 81.4385 19.381 80.601 20.2005C80.189 20.6099 79.6973 20.9303 79.1564 21.1417C78.6155 21.3532 78.0369 21.4512 77.4565 21.4298C76.8765 21.4474 76.299 21.3476 75.7587 21.1363C75.2183 20.9251 74.7262 20.6068 74.312 20.2005C73.4924 19.3784 73.0814 18.2056 73.0788 16.6822V16.424C73.0788 14.9211 73.4899 13.7586 74.312 12.9365C75.1736 12.1458 76.3005 11.7071 77.47 11.7071C78.6394 11.7071 79.7663 12.1458 80.628 12.9365C81.4475 13.7561 81.8572 14.9186 81.8572 16.424V16.6822Z" fill="currentColor"/>
<path d="M100.52 16.2586C100.551 14.9579 100.256 13.6701 99.661 12.5129C99.1146 11.4711 98.2816 10.6073 97.2602 10.0235C96.1854 9.39759 94.9584 9.08149 93.7149 9.11019C92.4267 9.08483 91.1546 9.39986 90.0271 10.0235C88.9781 10.6165 88.124 11.5014 87.5685 12.5707C86.9536 13.7519 86.6486 15.0699 86.6822 16.4012V16.7441C86.6533 18.0749 86.958 19.3917 87.5685 20.5745C88.1568 21.6391 89.0276 22.5206 90.0849 23.1218C91.2371 23.7326 92.5268 24.0378 93.8306 24.0081C94.9106 24.0473 95.9856 23.8418 96.9751 23.4069C97.7291 23.0539 98.4011 22.5472 98.9481 21.9195C99.4025 21.4074 99.7909 20.8404 100.104 20.2316L97.688 18.9946C97.3715 19.6454 96.9226 20.2229 96.3701 20.6902C95.8151 21.1886 94.9853 21.4365 93.8807 21.4339C92.7876 21.4659 91.724 21.0768 90.9096 20.3472C90.5144 19.96 90.2017 19.4968 89.9905 18.9855C89.7792 18.4742 89.6737 17.9254 89.6803 17.3722H100.516L100.52 16.2586ZM89.7304 15.1025C89.8256 14.1458 90.2751 13.2593 90.9905 12.617C91.7457 11.9889 92.7065 11.6622 93.688 11.6998C94.6708 11.6532 95.6347 11.9809 96.3855 12.617C96.7369 12.931 97.0207 13.3133 97.2195 13.7407C97.4183 14.168 97.5278 14.6314 97.5415 15.1025H89.7304Z" fill="currentColor"/>
<path d="M102.948 23.619V9.51106H105.838V11.1681H106.297C106.488 10.6208 106.875 10.1637 107.383 9.88485C107.963 9.58026 108.613 9.43154 109.268 9.45325H110.955V12.1122H109.156C108.301 12.0784 107.464 12.3642 106.809 12.9137C106.2 13.4301 105.896 14.2278 105.896 15.3145V23.619H102.948Z" fill="currentColor"/>
<path d="M123.807 24.004C122.43 24.0309 121.064 23.7574 119.804 23.2024C118.681 22.7045 117.727 21.8903 117.06 20.8595C116.385 19.7081 116.048 18.3899 116.089 17.056V16.3392H119.145V17.0676C119.145 18.478 119.565 19.5351 120.405 20.239C121.377 20.9852 122.583 21.3633 123.807 21.3065C125.238 21.3065 126.315 21.011 127.037 20.4202C127.385 20.1389 127.664 19.7813 127.853 19.3751C128.041 18.9689 128.134 18.5249 128.123 18.0772C128.147 17.518 127.964 16.9696 127.611 16.5358C127.215 16.0989 126.711 15.7734 126.15 15.5916C125.415 15.3105 124.66 15.0813 123.892 14.9057L122.836 14.6475C121.687 14.3873 120.567 14.0143 119.491 13.5338C118.623 13.1317 117.873 12.5101 117.318 11.7304C116.772 10.8795 116.503 9.8808 116.547 8.87102C116.516 7.79714 116.816 6.73971 117.407 5.84212C118.022 4.98139 118.864 4.30783 119.838 3.89607C120.987 3.41665 122.224 3.18298 123.468 3.21013C124.743 3.18737 126.008 3.43153 127.183 3.92691C128.238 4.36411 129.144 5.09925 129.788 6.04251C130.449 7.09386 130.776 8.32013 130.728 9.56082V10.5897H127.672V9.56082C127.706 8.82573 127.517 8.09758 127.129 7.47217C126.779 6.94004 126.267 6.5347 125.669 6.3161C124.966 6.04934 124.22 5.91856 123.468 5.93074C122.245 5.93074 121.292 6.18765 120.609 6.70146C120.283 6.93939 120.021 7.25425 119.846 7.618C119.671 7.98174 119.589 8.38308 119.607 8.78625C119.586 9.32362 119.735 9.85391 120.035 10.3007C120.39 10.7186 120.843 11.0428 121.353 11.2448C122.045 11.531 122.762 11.7516 123.495 11.9038L124.555 12.162C125.735 12.4087 126.885 12.7821 127.985 13.2756C128.908 13.6641 129.717 14.2839 130.331 15.0753C130.932 15.9376 131.233 16.9734 131.187 18.0232C131.211 19.1401 130.892 20.2375 130.274 21.1678C129.639 22.0971 128.756 22.83 127.726 23.2834C126.486 23.7986 125.15 24.0443 123.807 24.004Z" fill="currentColor"/>
<path d="M133.303 9.51048V23.6184H136.251V9.51048H133.303ZM136.251 4.16173C136.059 3.97056 135.831 3.82035 135.58 3.7203C135.329 3.62026 135.06 3.57247 134.79 3.57984C134.248 3.56995 133.725 3.775 133.333 4.15016C133.142 4.33456 132.993 4.55727 132.894 4.80365C132.795 5.05003 132.749 5.31454 132.759 5.57984C132.75 5.84959 132.796 6.11833 132.895 6.36951C132.994 6.62069 133.143 6.84898 133.333 7.04034C133.731 7.40146 134.253 7.59598 134.79 7.5837C135.057 7.59354 135.324 7.55061 135.574 7.45737C135.825 7.36414 136.055 7.22243 136.251 7.04034C136.44 6.84879 136.589 6.62038 136.687 6.36918C136.785 6.11798 136.831 5.84934 136.821 5.57984C136.83 5.31671 136.785 5.05452 136.686 4.81024C136.588 4.56595 136.44 4.34501 136.251 4.16173Z" fill="currentColor"/>
<path d="M152.566 16.2586C152.595 14.958 152.3 13.6707 151.707 12.5129C151.161 11.4711 150.328 10.6073 149.306 10.0235C148.231 9.39759 147.004 9.08149 145.761 9.11019C144.473 9.08483 143.201 9.39986 142.073 10.0235C141.024 10.6173 140.169 11.5019 139.611 12.5707C138.998 13.7526 138.693 15.0701 138.724 16.4012V16.7441C138.697 18.0747 139.002 19.3911 139.611 20.5745C140.2 21.6383 141.071 22.5195 142.127 23.1218C143.279 23.7326 144.569 24.0378 145.873 24.0081C146.953 24.0481 148.028 23.8426 149.017 23.4069C149.772 23.0558 150.445 22.5489 150.99 21.9195C151.444 21.4072 151.833 20.8402 152.146 20.2316L149.734 18.9946C149.421 19.6519 148.973 20.2362 148.42 20.7094C147.865 21.2078 147.035 21.4557 145.931 21.4532C144.837 21.4855 143.774 21.0965 142.959 20.3665C142.564 19.9795 142.251 19.5164 142.039 19.0051C141.827 18.4939 141.72 17.945 141.726 17.3915H152.566V16.2586ZM141.757 15.1025C141.851 14.1464 142.299 13.2599 143.013 12.617C143.774 11.9854 144.742 11.6585 145.73 11.6998C146.713 11.6532 147.677 11.9809 148.428 12.617C148.781 12.9295 149.066 13.3115 149.265 13.7392C149.464 14.1669 149.572 14.631 149.584 15.1025H141.757Z" fill="currentColor"/>
<path d="M154.902 23.6189V9.51096H157.792V11.168H158.247C158.441 10.6222 158.827 10.1658 159.333 9.88475C159.915 9.58067 160.566 9.432 161.222 9.45315H162.91V12.1121H161.11C160.256 12.0789 159.421 12.3647 158.767 12.9136C158.154 13.43 157.85 14.2277 157.85 15.3144V23.6189H154.902Z" fill="currentColor"/>
<path d="M164.751 23.6189V9.51096H167.661V11.168H168.116C168.309 10.6222 168.696 10.1658 169.202 9.88475C169.784 9.58067 170.435 9.432 171.091 9.45315H172.778V12.1121H170.975C170.122 12.0789 169.286 12.3647 168.632 12.9136C168.023 13.43 167.715 14.2277 167.715 15.3144V23.6189H164.751Z" fill="currentColor"/>
<path d="M186.647 21.1484C186.116 21.1484 185.85 20.8633 185.85 20.2891V14.4856C185.85 12.7721 185.326 11.4477 184.278 10.5126C183.229 9.57746 181.789 9.10989 179.958 9.10989C178.919 9.08293 177.886 9.27736 176.929 9.68023C176.143 10.0213 175.447 10.5412 174.898 11.1985C174.402 11.8051 174.033 12.5048 173.811 13.2563L176.555 14.1426C176.7 13.426 177.072 12.7749 177.615 12.2852C178.27 11.7674 179.094 11.5118 179.927 11.5685C180.954 11.5685 181.716 11.8164 182.212 12.3122C182.464 12.5731 182.66 12.8827 182.787 13.222C182.915 13.5612 182.973 13.9231 182.956 14.2852V15.1985H178.671C177.724 15.1829 176.784 15.3491 175.9 15.6879C175.132 15.9802 174.464 16.4855 173.973 17.1446C173.492 17.8502 173.252 18.6921 173.287 19.5453C173.26 20.4072 173.499 21.2565 173.973 21.9769C174.45 22.6458 175.102 23.1699 175.857 23.4914C176.718 23.8466 177.643 24.0223 178.574 24.0078C179.375 24.0427 180.174 23.9115 180.921 23.6224C181.437 23.3925 181.895 23.0502 182.262 22.6205C182.521 22.3086 182.751 21.9732 182.948 21.6186H183.38V21.6918C183.368 21.9578 183.419 22.2228 183.528 22.4657C183.637 22.7086 183.801 22.9226 184.008 23.0906C184.473 23.4492 185.051 23.6321 185.638 23.607H187.838V21.1484H186.647ZM182.96 17.7727C182.986 18.2899 182.903 18.8069 182.716 19.2897C182.529 19.7725 182.241 20.2103 181.873 20.5742C181.085 21.2652 180.06 21.6243 179.014 21.5762C178.293 21.617 177.58 21.4163 176.987 21.0058C176.747 20.828 176.555 20.595 176.425 20.3265C176.296 20.0581 176.233 19.7623 176.243 19.4644C176.226 19.1808 176.283 18.8976 176.408 18.6424C176.533 18.3872 176.722 18.1686 176.956 18.0078C177.515 17.6406 178.176 17.4598 178.844 17.4914H182.96V17.7727Z" fill="currentColor"/>
<path d="M23.4681 4.99809C23.485 4.89856 23.4622 4.79639 23.4045 4.71351C23.3469 4.63064 23.259 4.5737 23.1598 4.55494C19.4758 3.31795 15.7918 1.32948 12.0924 0.077076C12.6481 4.26439 12.9505 8.48145 12.998 12.7052C14.8727 10.9068 16.8754 9.24667 18.9903 7.73796C17.4766 9.85593 15.8128 11.8624 14.0115 13.7418C17.1689 13.8044 20.3176 14.0942 23.4334 14.6089C23.4604 12.1888 23.472 9.16765 23.4835 9.16765C23.4681 7.7688 23.4527 6.38152 23.4681 4.99809ZM18.9903 22.2312C16.8754 20.7225 14.8727 19.0624 12.998 17.264C12.9494 21.4955 12.6457 25.7203 12.0885 29.9152C15.4488 28.605 18.3583 26.7168 20.5664 23.9268C22.3408 21.761 23.3417 19.0649 23.4103 16.2659C23.4103 15.9923 23.4103 15.6879 23.4103 15.3603C20.2971 15.8748 17.1509 16.1646 13.9961 16.2274C15.8026 18.1063 17.4717 20.1128 18.9903 22.2312ZM4.49701 7.73796C6.6119 9.24667 8.61459 10.9068 10.4893 12.7052C10.5375 8.48033 10.8387 4.26214 11.391 0.0732422C7.68777 1.34106 3.98449 3.31408 0.281214 4.57035C0.193921 4.58638 0.1161 4.63529 0.0637689 4.70697C0.0114382 4.77866 -0.0114175 4.86767 -9.45753e-05 4.9557C0.0268804 8.17343 0.019173 11.3834 0.0538551 14.5896C3.16964 14.0749 6.31843 13.7852 9.47582 13.7226C7.67526 11.8493 6.01139 9.8493 4.49701 7.73796ZM4.49701 22.2312C6.01065 20.1133 7.67454 18.1068 9.47582 16.2274C6.32248 16.1639 3.17768 15.8754 0.0654153 15.3642C0.0654153 15.6493 0.0654153 15.9384 0.0654153 16.2235C0.113847 18.8606 1.00813 21.4125 2.61648 23.5029C4.82457 26.5087 7.86889 28.5125 11.3872 29.9114C10.8315 25.7176 10.5291 21.4942 10.4816 17.264C8.60935 19.0621 6.60925 20.7222 4.49701 22.2312Z" fill="currentColor"/>
</g>
<defs>
<clipPath id="clip0_1038_516">
<rect width="187.85" height="30" fill="currentColor"/>
</clipPath>
</defs>
</svg>
