<svg width="36" height="36" viewBox="0 0 36 36" fill="none" xmlns="http://www.w3.org/2000/svg">
<path d="M31.1142 18.0005V24.8206C31.1142 27.0243 31.1142 28.1261 30.6853 28.9678C30.3081 29.7081 29.7062 30.31 28.9658 30.6873C28.1241 31.1161 27.0223 31.1161 24.8187 31.1161H11.1783C8.9747 31.1161 7.87288 31.1161 7.0312 30.6873C6.29084 30.31 5.6889 29.7081 5.31167 28.9678C4.88281 28.1261 4.88281 27.0243 4.88281 24.8206V11.1803C4.88281 8.97665 4.88281 7.87483 5.31167 7.03315C5.6889 6.29279 6.29084 5.69086 7.0312 5.31362C7.87288 4.88477 8.9747 4.88477 11.1783 4.88477H17.9985M5.07366 28.3964C5.68897 26.1828 7.71916 24.5583 10.1288 24.5583H19.3098C20.5286 24.5583 21.138 24.5583 21.6448 24.6591C23.726 25.0731 25.3528 26.6999 25.7668 28.7811C25.8676 29.2879 25.8676 29.8973 25.8676 31.1161M20.6216 14.7215C20.6216 17.619 18.2728 19.9678 15.3754 19.9678C12.4779 19.9678 10.1291 17.619 10.1291 14.7215C10.1291 11.8241 12.4779 9.47526 15.3754 9.47526C18.2728 9.47526 20.6216 11.8241 20.6216 14.7215Z" stroke="url(#paint0_linear_3658_118)" stroke-width="1.5" stroke-linecap="round" stroke-linejoin="round"/>
<path d="M23.2422 8.8204L25.8653 11.4435L31.1116 6.19727" stroke="#183B65" stroke-width="1.5" stroke-linecap="round" stroke-linejoin="round"/>
<defs>
<linearGradient id="paint0_linear_3658_118" x1="17.9985" y1="4.88477" x2="17.9985" y2="31.1161" gradientUnits="userSpaceOnUse">
<stop stop-color="#00B4E5"/>
<stop offset="1" stop-color="#2DD9C3"/>
</linearGradient>
</defs>
</svg>
