<svg width="1440" height="228" viewBox="0 0 1440 228" fill="none" xmlns="http://www.w3.org/2000/svg"><path d="M1018.94 81.997s.53-.731 1.02-1.07c.5-.337 1.25.267 1.33.503.07.236.25.666.25.825 0 .503-.5 1.179-.67 1.225-.16.046-1.88.21-1.88.21s-.38-1.664-.05-1.693Z" fill="#132F51"/><path d="M1010.4 78.598c.73-.33 2.03.252 2.41.843.38.591 2.82 3.28 2.82 3.28s2.31-.747 2.74-.773c.43-.026.73.204.73.204s.44 1.29.31 1.511c-.13.222-3.24 1.483-4.54 1.31-1.29-.173-5.07-2.714-5.37-3.55-.31-.835-.34-2.267.9-2.825Zm20.12.402c.46.85 1.99 3.872 1.4 5.494 0 0-1.62-3.716-2.24-5.065l.84-.429Z" fill="#132F51"/><path d="M1030.49 79.068c.36.897 1.58 4.057 1.43 5.372 0 0-1.35-3.814-1.86-5.206l.43-.166Z" fill="#132F51"/><path d="m1030.5 78.589.26.71-13.39 4.841-.26-.71 13.39-4.841Z" fill="#132F51"/><path d="M1021.64 81.573c.6.056-.29 2.084-1.04 2.01-.75-.076-.35-1.443-.15-1.661.11-.128.1-.452 1.19-.35ZM1011 72.171s.73 1.307.81 2.428c.08 1.12-2.68-.15-3.06-.276-.39-.126-.65-2.646-.58-2.856.07-.21 1.2-.733 1.2-.733s1.27.785 1.63 1.438Z" fill="#132F51"/><path d="M1010.79 71.177s.37.966.46 1.401c.09.436-2.7.23-2.74.034-.05-.198-.38-1.203-.11-1.359.27-.155 1.99-.267 2.39-.076Z" fill="#132F51"/><path d="M1010.91 71.234s.34.894.42 1.297c.09.403-2.52.212-2.56.03-.04-.183-.36-1.114-.11-1.257.26-.144 1.87-.247 2.25-.07Zm-.19 2.266c-.06.022-2.57-.736-2.57-.736l-.22.34 2.78.964.01-.568Z" fill="#132F51"/><path d="M1011.36 72.434s.63.722.71.925c.08.203-.14 1.512-.26 1.54-.66.157-1.51-.52-1.69-.784-.17-.263.65-1.562 1.24-1.681Zm-1.55-2.817s1.08.572 1.61 1.82c0 0-1.45.425-1.92.317-.48-.108-.89-1.623.31-2.137Zm6.52 26.793s.05.256-.03.526c-.07.27-.5 1.77-.42 2.023.08.253 1.41.22 1.89.621.48.403.36 1.558.17 1.719-.19.161-4.74-.536-5.11-.696-.36-.16.61-4.312.74-4.568.13-.256 2.33.306 2.76.375Z" fill="#132F51"/><path d="M1015.02 85.711s2.12 4.937 2.21 6.11c.11 1.582-.91 4.282-.98 4.811-.07.497-2.39.01-2.57-.481-.1-.255.34-4.255.24-4.502-.11-.247-2.64-2.939-2.91-3.739-.26-.8.62-2.623.62-2.623s2.72.192 3.39.424Zm7.93 5.332s.24.139.41.39c.16.253 1.09 1.65 1.36 1.76.26.11 1.16-.985 1.83-1.09.66-.107 1.53.797 1.52 1.066 0 .269-3.75 3.457-4.14 3.641-.39.185-3.11-3.513-3.23-3.796-.12-.282 1.88-1.666 2.25-1.971Z" fill="#132F51"/><path d="M1013.27 84.606s5.53 1.747 6.55 2.5c1.37 1.014 2.87 3.733 3.25 4.162.36.402-1.67 1.938-2.2 1.74-.27-.102-3.24-3.259-3.52-3.345-.27-.086-4.25.071-5.09-.273-.84-.344-1.71-2.338-1.71-2.338s2.05-2.06 2.72-2.446Z" fill="#132F51"/><path d="m1016.68 85.688.87.332s-2.53 3.346-3.76 3.677l-.95-.184s3.01-2.513 3.84-3.826Zm-6.19-12.216s.11-4.255-.33-4.165c-.44.09-4.05.78-4.36 2.778-.31 1.988 1.47 3.169 2.03 3.376.56.208 1.53-.135 1.53-.135l1.43-.978s-.11-.412-.3-.876Z" fill="#132F51"/><path d="M1011.23 74.98s-.14-.7-.24-.707c-.09-.005-4.2.73-4.08.859.11.129.92 1.229.92 1.229s-.2 2.56 1.55 6.77c.63 1.49.67 3.66 1.22 3.825.56.164 3.18-1.042 3.49-1.528.3-.487.63-1.307.63-1.307s-1.28-4.49-1.54-5.49-.91-2.743-1.95-3.65Z" fill="#132F51"/><path d="M1012.15 83.795s2.14 2.512 3.54 3.794l-.81.814s-2.61-2.624-3.47-4.136l.74-.472Zm-7.01-6.719c0-.002 2.18-.795 2.65-.33.23.234.82 2.473 1.5 4.766.66 2.297 1.41 4.648 1.44 5.206.05 1.115-3.94 2.486-4.53 2.05-.28-.207-1.27-2.708-1.99-5.34-.76-2.629-1.25-5.388-1.21-5.999.08-1.227 1.31-.505 2.14-.353Z" fill="#132F51"/><path d="M1007.52 76.456c.14.08.27.288.27.288s-.66 2.687-1.11 5.514c-.49 2.808-.77 5.755-.87 5.82-.2.135-.52-.463-.6-.916-.05-.225.14-2.954.54-5.534.38-2.596.97-5.044 1.05-5.062.16-.04.58-.19.72-.11Z" fill="#132F51"/><path d="M1004.46 84.306c2.07.347 4.12.625 6.17.834 0 0 .37.969.19 1.128-.09.08-1.56-.037-3.02-.244-1.47-.197-2.94-.484-3.02-.544-.15-.118-.51-.972-.32-1.174Z" fill="#132F51"/><path d="M1006.68 76.883s3.14-1.93 4.8-1.11c1.67.82 1.21 3.593 1.21 3.593l-2.13 6.52-1.15-.879s2.18-7.594 1.52-8.551c-.66-.957-4.24 1.51-4.34 1.567-.1.057-.45-.71.09-1.14Zm-.39-.411c0-.004 0-.004 0 0Z" fill="#132F51"/><path d="m1014.39 82.56.32 1.141s-3.77 2.723-4.05 2.592l-.79-1.233s2.68-1.665 4.52-2.5Zm3.65-6.297s.25-1.227.69-1.979c.44-.751 1.79-.631 2.03-.42.24.213.72.569.82.749.31.568.06 1.71-.12 1.883-.18.174-2.33 1.65-2.33 1.65s-1.5-1.6-1.09-1.883Z" fill="#132F51"/><path d="M1008.94 76.736c.44-.637 1.82-.76 2.44-.43.61.329 4.01 1.477 4.01 1.477s1.98-1.534 2.33-1.762c.34-.228.44-.19.44-.19s1.34.95 1.41 1.983c.01.253-2.2 2.108-3.36 2.58-1.17.472-5.9-.214-6.58-.79-.68-.576-1.44-1.794-.69-2.868Zm34.96-25.315s.89 1.605 1.14 2.93c.25 1.324-2.58-.438-2.97-.624-.39-.186-1.03-3.17-.99-3.41.04-.24 1.05-.742 1.05-.742s1.33 1.044 1.77 1.846Z" fill="#132F51"/><path d="M1043.53 50.26s.68 1.275.91 1.839c.24.564-2.49-.09-2.6-.346-.11-.256-.78-1.578-.58-1.736.21-.158 1.82-.056 2.27.243Z" fill="#132F51"/><path d="M1043.69 50.326s.64 1.182.85 1.705c.22.522-2.34-.089-2.44-.326-.1-.237-.73-1.463-.53-1.609.19-.146 1.7-.048 2.12.23Z" fill="#132F51"/><path d="M1041 49.1s1.33-.812 2.31-.674 1.09.592 1.09.592l-.48.181s.43.293.71.817l-.39.01.52.576s-1.16-.03-1.98-.29c-.83-.26-1.14.957-1.27 1.093-.13.135-1.15-1.98-.51-2.305Zm2.69 3.95c-.05.02-2.77-1.313-2.77-1.313l-.09.405 3.05 1.637-.19-.728Z" fill="#132F51"/><path d="M1044.13 51.61s.74.953.87 1.208c.13.254.35 1.799.25 1.818-.5.1-1.42-.829-1.65-1.17-.23-.34.07-1.791.53-1.856Zm4.02 12.248s.84-.255 1.46-.177c.62.077 1.04 1.233.99 1.51-.04.277-.08.812-.16.96-.24.464-1.03.692-1.2.606-.17-.086-1.86-1.297-1.86-1.297s.44-1.84.77-1.602Z" fill="#132F51"/><path d="M1042.29 54.88c.77.264 1.62 1.776 1.69 2.588.06.813.96 5.06.96 5.06s2.3 1.1 2.67 1.403c.38.303.53.737.53.737s-.19 1.48-.39 1.579c-.21.098-3.41-1.15-4.43-2.29-1.03-1.141-3.13-6.277-3.03-7.25.11-.973.71-2.273 2-1.828Zm2.78 21.472s.14.299.16.632c.02.333.15 2.183.32 2.473.17.29 1.42.067 2.03.481.6.414.9 1.81.77 2.028-.13.22-4.72.015-5.13-.126-.41-.14-.96-5.232-.93-5.555.03-.322 2.34.045 2.78.067Z" fill="#132F51"/><path d="M1040.95 64.648s3.48 5.446 3.94 6.796c.63 1.82.62 5.093.73 5.717.1.585-2.09.333-2.41-.213-.17-.283-1.1-4.985-1.28-5.258-.17-.272-3.27-3.056-3.77-3.949-.5-.893-.32-3.128-.32-3.128s2.44-.143 3.11.035Zm7.71 9.352s.23.267.37.625c.13.358.86 2.346 1.12 2.59.25.244 1.34-.576 2.04-.393.69.183 1.44 1.588 1.39 1.889-.04.3-4.37 2.171-4.79 2.203-.43.03-2.64-5.35-2.72-5.72-.08-.372 2.18-1.017 2.6-1.194h-.01Z" fill="#132F51"/><path d="M1040.33 63.5s5.18 4.385 6.08 5.669c1.2 1.73 2.27 5.391 2.59 6.035.29.603-1.93 1.392-2.42.94-.25-.236-2.71-5.036-2.97-5.255-.26-.218-4.2-1.815-4.98-2.57-.78-.754-1.34-3.34-1.34-3.34s2.32-1.351 3.04-1.48Z" fill="#132F51"/><path d="m1043.92 66.291.77.824s-3.25 2.732-4.65 2.534l-1-.678s3.76-1.513 4.88-2.68Zm.5-13.565s-1.63-4.22-2.13-4.125c-.5.095-2.99.847-3.16 2.475-.23 2.268 1.61 3.615 2.24 3.86.63.244 1.74-.128 1.74-.128l1.63-1.084s-.11-.468-.32-.997Z" fill="#132F51"/><path d="M1044.19 54.703s.23-.778.14-.834c-.09-.056-4.6-1.471-4.55-1.28.05.192.27 1.716.27 1.716s-1.56 2.465-2.03 7.608c-.17 1.82-1.28 4.018-.81 4.475.47.457 3.74.62 4.3.29.57-.329 1.33-.98 1.33-.98s1.11-5.172 1.37-6.31c.27-1.14.54-3.23-.02-4.685Z" fill="#132F51"/><path d="M1038.94 64.122s1.88 2.317 3.6 3.613l-.92.404s-2.33-1.792-3.46-3.405l.78-.612Z" fill="#132F51"/><path d="M1035.07 53.455c0-.002 1.92.622 2.26 1.387.16.385.4 3.002.71 5.731.28 2.72.64 5.553.6 6.13-.08 1.147-3.59-.076-4.02-.889-.22-.392-.76-3.528-1.06-6.626-.33-3.111-.42-6.185-.32-6.766.21-1.173 1.15.343 1.83 1.033Z" fill="#132F51"/><path d="M1038.4 54.26c.11.169.17.459.17.46 0 0-1.47 2.324-2.79 4.917-1.34 2.55-2.54 5.369-2.65 5.376-.24.012-.36-.797-.29-1.31.02-.257 1.06-2.915 2.25-5.287 1.17-2.406 2.51-4.526 2.59-4.497.16.06.61.171.72.34Z" fill="#132F51"/><path d="M1032.38 60.175c1.88 1.642 3.77 3.21 5.67 4.7-.01 0 .05 1.217-.18 1.266-.11.024-1.48-1.01-2.82-2.137-1.35-1.117-2.67-2.326-2.72-2.434-.11-.214-.19-1.305.05-1.395Z" fill="#132F51"/><path d="M1038.63 54.23s4.16-.293 5.4 1.402c1.23 1.695-.7 4.237-.7 4.237l-5.6 5.422-.68-1.48s6.22-6.476 6.06-7.783c-.15-1.307-5.06-.71-5.18-.704-.13.007-.07-.945.7-1.093Zm-.18-.619c0-.005 0-.004 0 0Z" fill="#132F51"/><path d="m1043.34 63.962-.28 1.313s-5.23.755-5.44.475l-.13-1.647s3.56-.267 5.85-.142Zm10.54-24.531c.9.437 4.05 2.075 5.4 4.052 0 0-3.81-2.22-5.2-3.001l-.2-1.05Z" fill="#132F51"/><path d="M1053.96 39.51c.91.558 4.11 2.565 5.28 3.91 0 0-3.83-2.518-5.23-3.425l-.05-.485Z" fill="#132F51"/><path d="m1051.47 39.743 3 .367-2.6 15.214-3-.367 2.6-15.214Z" fill="#132F51"/><path d="M1049.45 51.373s-.68-1.47-.95-2.509c-.26-1.037.57-1.56.85-1.444.28.117.79.271.96.422.56.477 1.19 1.85 1.2 2.13.02.28-.18 2.944-.18 2.944s-1.92-1.03-1.88-1.543Zm-8.11 5.218c-.21-.976.6-1.835 1.27-1.766.66.068 3.81-.341 3.81-.341s.11-2.827.15-3.271c.05-.445.15-.454.15-.454s1.63.422 2.49 1.6c.21.29.21 3.608-.18 4.765-.4 1.157-4.07 2.801-4.97 2.476-.9-.325-2.37-1.363-2.72-3.009Z" fill="#132F51"/><path fill-rule="evenodd" clip-rule="evenodd" d="M703.225 106.101c4.12.63 7.554 5.46 10.556 11.016 7.938-2.263 15.372-5.758 21.775-11.623 10.777-9.869 16.977-11.456 29.383-14.632a678.24 678.24 0 0 0 4.968-1.286c1.481-.392 2.852-1.072 4.224-1.752.64-.318 1.279-.635 1.931-.923 5.209-2.311 10.941-2.697 16.694-3.085 4.691-.316 9.395-.632 13.842-1.994a60.77 60.77 0 0 0 1.915-.63c1.454-.497 2.907-.994 4.423-1.231.936-.15 1.884-.197 2.832-.244.824-.04 1.648-.082 2.466-.19 5.016-.667 10.612-3.652 12.416-8.32 1.28-3.308 4.271-5.336 7.303-7.391 1.95-1.322 3.917-2.655 5.458-4.348.131-.145.263-.294.396-.444 1.114-1.258 2.337-2.64 3.969-2.487.667.061 1.274.397 1.858.72l.015.009 3.469 1.931 3.466 1.93c1.95 1.085 3.914 2.186 5.535 3.706.697.651 1.328 1.379 1.959 2.105 1.141 1.315 2.279 2.626 3.791 3.47.606.338 1.254.59 1.902.843.438.17.876.34 1.301.537 3.622 1.67 5.914 4.968 8.225 8.293 1.929 2.775 3.87 5.568 6.608 7.448.597.41 1.227.771 1.858 1.133.621.356 1.243.712 1.834 1.115 1.121.761 2.113 1.683 3.105 2.604.402.374.804.748 1.215 1.11 1.809 1.6 4.204 2.701 6.599 3.8 3.233 1.486 6.465 2.971 8.249 5.683 1.449 2.206 4.191 2.416 7.003 2.631 1.488.113 2.996.228 4.342.642.797.241 1.548.6 2.3.959.67.32 1.34.641 2.043.878 1.667.559 3.456.644 5.222.644 5.771.011 11.504-.763 17.236-1.537 6.077-.821 12.152-1.642 18.27-1.526 4.168.079 8.366.59 12.554 1.1 8.109.987 16.184 1.97 23.955-.193 3.11-.868 6.06-2.21 8.97-3.605a270.806 270.806 0 0 0 44.92-27.178c5.43-4.055 10.7-8.304 15.98-12.56.78-.633 1.57-1.265 2.35-1.897l1.63-1.317c2.41-1.94 4.81-3.882 7.22-5.82 4.21-3.404 8.67-6.288 13.61-8.56 2.21-1.02 4.42-2.037 6.63-3.055 2.21-1.018 4.42-2.035 6.63-3.055 5.94-2.73 11.88-5.467 17.58-8.63l.07-.036c4.12-2.287 8.79-4.873 13.3-3.454 2.56.807 4.54 2.784 6.32 4.777.94 1.053 1.87 2.13 2.79 3.21 3.13 3.654 6.27 7.317 10.23 10.041 3.98 2.737 8.61 4.389 13.17 6.017 1.23.434 2.46.87 3.68 1.306 1.23.437 2.46.873 3.69 1.307.53-.271 1.07-.543 1.59-.83 2-1.403 4.14-2.574 6.41-3.496.81-.294 1.62-.591 2.42-.888.52-.188 1.03-.376 1.54-.563 3.17-1.294 6.41-2.729 9.5-4.194 3.18-1.512 5.76-3.18 8.25-5.599.64-.62 1.35-.983 2.05-1.348.53-.272 1.07-.546 1.58-.931.48-.368.82-.892 1.15-1.415.41-.656.83-1.31 1.55-1.656.9-.44 2.24-.33 3.43-.23.48.04.93.077 1.32.075 3.17-.015 6.1.186 8.79 1.939.53.35 1.07.76 1.61 1.175.9.69 1.81 1.394 2.78 1.849.81.379 1.65.497 2.49.616.8.111 1.6.223 2.37.554 1.84.79 3.48 2.24 5.04 3.613l.01.001c.52.46 1.03.911 1.54 1.326 2.45 2 4.74 3.466 7.64 4.815 1.15.53 2.33 1 3.52 1.472 1.78.708 3.57 1.418 5.23 2.335 1.85 1.016 2.84 2.109 4.2 3.652.95 1.07 1.97 1.92 3.02 2.787.57.478 1.15.96 1.72 1.485.24.22.47.431.68.633 1.09 1.032 1.92 1.825 3.59 2.26 1.44.374 2.31 1.153 3.28 2.025.44.393.9.805 1.44 1.208 2.54 1.884 4.59 2.024 7.7 1.628 2.63-.334 4.8-1.254 7.09-2.226.63-.268 1.27-.54 1.94-.806.94-.378 1.9-.61 2.85-.839 1.39-.334 2.77-.666 4.07-1.448 1.98-1.202 4.16-2.613 6.07-3.931.52-.354.96-.766 1.41-1.175.66-.611 1.32-1.217 2.19-1.617.83-.38 1.73-.633 2.63-.885.72-.2 1.44-.401 2.12-.665 1.6-.628 2.45-.675 4.17-.644.88.015 1.76.002 2.64-.011 2.26-.035 4.52-.069 6.75.383 3.16.642 5.97 2.467 8.71 4.245.91.588 1.8 1.17 2.7 1.703.98.578 1.79 1.325 2.6 2.073.77.716 1.54 1.432 2.46 1.997.66.408 1.34.706 2.02 1.003.84.37 1.68.74 2.47 1.316 2.53 1.832 4.59 4.146 6.65 6.462 1.57 1.762 3.14 3.524 4.91 5.075 1.93 1.688 4.05 3.042 6.18 4.401l.01.003c1.16.745 2.33 1.492 3.48 2.296 2.28 1.6 4.51 3.583 6.63 5.458v.001c.24.214.48.425.71.635.65.573 1.26 1.208 1.87 1.847 1.39 1.445 2.79 2.905 4.69 3.674.7.285 1.43.383 2.16.48.74.099 1.48.197 2.19.49.73.305 1.47.719 2.2 1.13l.01.002c.55.309 1.1.616 1.64.876 3.01 1.442 5.7 3.466 7.51 6.226 1.83 2.784 3.17 3.761 6.5 3.683.55-.013 1.12-.036 1.69-.058 1.75-.069 3.57-.141 5.26.035 3.24.333 6.06 1.706 8.96 3.123l.2.095c2.99 1.465 5.97 2.83 8.99 4.187 1.33.593 2.46 1.526 3.6 2.46 1.28 1.053 2.57 2.109 4.13 2.68 2.52.931 3.47.45 5.32-1.062 2.46-2.024 6.6-.969 8.99.768.82.598 1.68 1.153 2.54 1.707v.002c1.06.68 2.11 1.361 3.1 2.121.73.562 1.39 1.131 2.04 1.691h.01c1.32 1.134 2.6 2.229 4.25 3.148 2.16 1.194 4 2.38 5.8 4.086.31.302.6.591.88.867.88.889 1.64 1.652 2.86 2.32 1.69.922 2.8 2.387 3.92 3.86v.003c.47.618.94 1.238 1.46 1.82.04.049.09.104.14.165l.16.181v.001c1.08 1.254 3.51 4.069 5.06 3.6 0-1.297 2.76-1.009 4.07-.872.16.017.3.032.41.041.08.006.14.009.18.009.85 0 1.7-.004 2.55-.008.84-.003 1.69-.007 2.54-.007 3.47 0 5.75 1.435 8.58 3.221.32.197.64.398.96.601.33.2.65.4.97.6v.001c2.3 1.418 4.61 2.848 6.7 4.54 4.59 3.721 15.05 14.945 17.86 18.501h.69v54H-144v-54h.349c1.386-2.855 6.46-10.909 7.257-12.023 2.448-3.412 4.224-4.088 7.261-5.244.99-.376 2.114-.804 3.439-1.395 11.123-4.956 19.689-12.375 28.32-19.851 6.46-5.595 12.956-11.221 20.588-15.87 6.283-3.825 11.992-8.269 17.382-12.976 1.767-1.538 3.513-3.452 5.295-5.405v-.001c2.905-3.183 5.906-6.473 9.256-8.42 5.941-3.455 13.888-1.301 21.383.73 3.147.852 6.213 1.684 9.019 2.07 10.277 1.414 21.105-1.877 29.206-7.3 1.735-1.162 3.302-2.478 4.864-3.79 2.615-2.196 5.216-4.38 8.57-5.814 2.642-1.127 5.532-1.715 8.422-2.302 2.205-.449 4.41-.897 6.504-1.586 8.16-2.68 10.152-6.855 12.7-12.194.801-1.678 1.657-3.47 2.776-5.368 2.432-4.135 5.837-7.744 9.656-10.964 2.998-2.528 7.734-2.958 11.402-1.097 2.59 1.312 7.43 1.63 16.329-.962 19.877-5.796 38.494-19.877 42.242-22.818.47-.374.996-.7 1.563-.978l37.8-18.74C181.267-.125 185.772-.5 189.838.67a142.6 142.6 0 0 1 3.44 1.05c3.705 1.166 7.503 2.361 11.454 2.567 2.379.127 3.718 1.109 5.214 2.205.384.282.779.572 1.205.856 2.758 1.853 5.637 3.666 9.009 4.922 1.038.387 1.948.854 2.852 1.319 1.083.556 2.158 1.108 3.431 1.511 2.103.663 4.196 1.822 6.148 2.903h.001c.602.334 1.19.66 1.761.961.856.452 1.738.791 2.624 1.132.797.307 1.597.615 2.383 1.007.523.26 1.002.527 1.466.786 1.333.742 2.546 1.417 4.338 1.694 1.021.064 1.898.35 2.648.859 1.698.668 4.026 1.058 5.9 1.352 3.125.493 6.617.707 9.823.691.804-.003 1.609 0 2.414.004 1.476.006 2.951.011 4.427-.02 2.552-.06 4.128.653 5.822 1.42.979.442 1.998.903 3.267 1.244.308.082.618.162.927.242h.001c1.513.389 3.027.779 4.311 1.491.649.362 1.263.742 1.876 1.122.99.612 1.976 1.223 3.099 1.748 2.4 1.121 4.879 1.686 7.606 2.21 3.397.66 6.642 1.638 9.823 2.696 2.229.744 4.023 1.839 5.825 2.939 1.394.852 2.794 1.706 4.405 2.403.594.258 1.195.537 1.806.82l.001.001c2.876 1.335 5.963 2.768 9.435 2.519 1.903-.137 3.804-.346 5.703-.556 1.419-.156 2.837-.312 4.256-.438 6.976-.612 14.176-1.233 21.208-.85l.796.035c1.52.062 3.244.133 4.515.672.68.287 1.284.69 1.902 1.1.476.317.96.64 1.494.92 1.085.569 2.082 1.196 3.078 1.823 1.466.921 2.931 1.842 4.672 2.58 2.457 1.044 5.232 1.68 7.973 2.309.915.21 1.825.419 2.719.641 1.993.501 3.987.986 5.996 1.455 7.961-6.529 17.697-16.269 25.566-24.141h.001c7.137-7.14 12.738-12.743 14.084-13.02.483-.097.954-.25 1.437-.406 3.013-.974 6.483-2.097 15.992 8.961 11.035 12.825 36.597 11.401 51.699 9.263 10.715-1.518 28.741 10.963 42.665 20.605 5.7 3.946 10.712 7.416 14.255 9.257 12.199 6.344 33.687 1.502 38.336.08 1.972-.605 4.677 2.513 7.67 5.962 4.06 4.679 8.65 9.968 12.661 7.41 6.818-4.348 8.08-3.43 22.816 7.287l1 .727c8.765 6.372 16.984 1.614 24.659-2.828 6.059-3.507 11.779-6.818 17.161-4.303 6.254 2.922 8.996 8.843 11.435 14.112 2.319 5.008 4.366 9.427 8.896 10.121Z" fill="#132F51"/></svg>