<svg width="36" height="36" viewBox="0 0 36 36" fill="none" xmlns="http://www.w3.org/2000/svg">
<path d="M6.1875 12.4875C6.1875 10.2823 6.1875 9.17969 6.61666 8.33741C6.99416 7.59652 7.59652 6.99416 8.33741 6.61666C9.17969 6.1875 10.2823 6.1875 12.4875 6.1875H23.5125C25.7177 6.1875 26.8203 6.1875 27.6626 6.61666C28.4035 6.99416 29.0058 7.59652 29.3833 8.33741C29.8125 9.17969 29.8125 10.2823 29.8125 12.4875V23.5125C29.8125 25.7177 29.8125 26.8203 29.3833 27.6626C29.0058 28.4035 28.4035 29.0058 27.6626 29.3833C26.8203 29.8125 25.7177 29.8125 23.5125 29.8125H12.4875C10.2823 29.8125 9.17969 29.8125 8.33741 29.3833C7.59652 29.0058 6.99416 28.4035 6.61666 27.6626C6.1875 26.8203 6.1875 25.7177 6.1875 23.5125V12.4875Z" stroke="url(#paint0_linear_3658_101)" stroke-width="1.5" stroke-linecap="round" stroke-linejoin="round"/>
<path d="M12.9375 22.05V24.75M18 16.65V24.75M23.0625 11.25V24.75" stroke="#183B65" stroke-width="1.5" stroke-linecap="round" stroke-linejoin="round"/>
<defs>
<linearGradient id="paint0_linear_3658_101" x1="18" y1="6.1875" x2="18" y2="29.8125" gradientUnits="userSpaceOnUse">
<stop stop-color="#00B4E5"/>
<stop offset="1" stop-color="#2DD9C3"/>
</linearGradient>
</defs>
</svg>
