<svg width="36" height="36" viewBox="0 0 36 36" fill="none" xmlns="http://www.w3.org/2000/svg">
<path d="M14.5306 27.8177L15.3091 29.5684C15.5405 30.0896 15.9181 30.5324 16.3962 30.8432C16.8743 31.1539 17.4323 31.3193 18.0025 31.3192C18.5727 31.3193 19.1307 31.1539 19.6088 30.8432C20.0869 30.5324 20.4646 30.0896 20.696 29.5684L21.4744 27.8177C21.7515 27.1965 22.2176 26.6786 22.8063 26.3378C23.3988 25.9961 24.0841 25.8505 24.7643 25.9219L26.6689 26.1247C27.2359 26.1846 27.8081 26.0788 28.3161 25.8201C28.8241 25.5614 29.2462 25.1608 29.5311 24.667C29.8164 24.1734 29.9523 23.6077 29.9223 23.0384C29.8924 22.4692 29.6979 21.9208 29.3624 21.46L28.2347 19.9105C27.8331 19.3547 27.6186 18.6856 27.622 17.9999C27.6219 17.3161 27.8384 16.6498 28.2406 16.0968L29.3683 14.5473C29.7038 14.0864 29.8983 13.5381 29.9282 12.9688C29.9582 12.3995 29.8223 11.8338 29.537 11.3403C29.2521 10.8465 28.8301 10.4459 28.322 10.1871C27.814 9.92841 27.2418 9.82261 26.6749 9.88258L24.7702 10.0853C24.09 10.1568 23.4047 10.0112 22.8123 9.66947C22.2224 9.32676 21.7561 8.80612 21.4803 8.18215L20.696 6.43141C20.4646 5.91026 20.0869 5.46745 19.6088 5.15669C19.1307 4.84593 18.5727 4.68057 18.0025 4.68066C17.4323 4.68057 16.8743 4.84593 16.3962 5.15669C15.9181 5.46745 15.5405 5.91026 15.3091 6.43141L14.5306 8.18215C14.2548 8.80612 13.7886 9.32676 13.1987 9.66947C12.6063 10.0112 11.921 10.1568 11.2408 10.0853L9.33021 9.88258C8.76325 9.82261 8.19107 9.92841 7.68304 10.1871C7.17501 10.4459 6.75296 10.8465 6.46805 11.3403C6.18278 11.8338 6.04687 12.3995 6.07682 12.9688C6.10677 13.5381 6.30128 14.0864 6.63676 14.5473L7.76446 16.0968C8.16662 16.6498 8.38319 17.3161 8.38307 17.9999C8.38319 18.6838 8.16662 19.35 7.76446 19.9031L6.63676 21.4526C6.30128 21.9135 6.10677 22.4618 6.07682 23.031C6.04687 23.6003 6.18278 24.166 6.46805 24.6596C6.75324 25.1531 7.17534 25.5535 7.6833 25.8122C8.19125 26.0709 8.7633 26.1769 9.33021 26.1173L11.2349 25.9145C11.915 25.8431 12.6004 25.9887 13.1928 26.3304C13.7849 26.6721 14.2533 27.1929 14.5306 27.8177Z" stroke="url(#paint0_linear_3599_999)" stroke-width="1.5" stroke-linecap="round" stroke-linejoin="round"/>
<path d="M18.0002 21.996C20.207 21.996 21.996 20.207 21.996 18.0002C21.996 15.7934 20.207 14.0044 18.0002 14.0044C15.7934 14.0044 14.0044 15.7934 14.0044 18.0002C14.0044 20.207 15.7934 21.996 18.0002 21.996Z" stroke="#183B65" stroke-width="1.5" stroke-linecap="round" stroke-linejoin="round"/>
<defs>
<linearGradient id="paint0_linear_3599_999" x1="18.0025" y1="4.68066" x2="18.0025" y2="31.3192" gradientUnits="userSpaceOnUse">
<stop stop-color="#00B4E5"/>
<stop offset="1" stop-color="#2DD9C3"/>
</linearGradient>
</defs>
</svg>
