<svg width="100" height="138" viewBox="0 0 100 138" fill="none" xmlns="http://www.w3.org/2000/svg"><path d="M91.563 137.625H8.436c-4.665 0-8.437-4.512-8.437-10.093V10.093C-.001 4.513 3.771 0 8.436 0h83.127C96.228 0 100 4.512 100 10.093v117.498c-.05 5.522-3.772 10.034-8.437 10.034Z" fill="#fff"/><path d="M4.454 126.893V10.237c0-2.91 1.975-5.286 4.394-5.286H91.15c2.42 0 4.394 2.376 4.394 5.286v116.656c0 2.911-1.975 5.286-4.394 5.286H8.848c-2.42-.059-4.394-2.375-4.394-5.286Z" stroke="#183B65" stroke-width="1.485" stroke-miterlimit="10"/><mask id="ISO27001" style="mask-type:luminance" maskUnits="userSpaceOnUse" x="4" y="67" width="92" height="65"><path d="M95.888 122.555v-19.146c0-.751-.248-1.502-.693-2.112L84.6 87.595a3.861 3.861 0 0 0-.644-.61l-8.91-6.288c-1.09-.751-2.476-.61-3.417.328l-1.98 2.018-.842-1.173a3.691 3.691 0 0 0-.742-.751l-10.149-6.757-5.742-5.725c-.892-.892-2.228-1.08-3.268-.423l-2.92 1.737c-.248.14-.496.328-.694.563l-4.307 4.88-5.89 4.317c-.347.235-.595.563-.842.939l-1.98 3.378-7.97-6.382c-1.04-.844-2.476-.797-3.466.141l-3.862 3.566c-.148.141-.247.282-.396.423L8.808 92.24 5.59 95.103c-.693.61-1.089 1.549-1.089 2.534v24.918c0 8.306 11.287-1.737 15.99 6.429l75.298 2.205" fill="#fff"/></mask><g mask="url(#ISO27001)"><path d="M91.532 161.41H8.957c-2.426 0-4.356-1.83-4.356-4.129V53.714c0-2.299 1.93-4.129 4.356-4.129h82.575c2.426 0 4.356 1.83 4.356 4.13V157.28c0 2.252-1.93 4.129-4.356 4.129Z" fill="#183B65"/></g><path d="m22.822 94.672-6.633 4.9L32.525 84.82l-4.802 6.04-1.534 3.812.594-2.92-7.476 6.435 3.515-3.515Zm2.673-11.683 2.426 2.574-1.881-1.04 1.584 1.931-9.11 8.614 1.832-3.861-1.633 2.426 2.128-4.11-1.584 2.327 3.664-7.277.198-4.06 5.792 4.654-3.416-2.178Zm46.038 3.663 1.733-4.604 9.753 7.673-8.07-5.643 8.02 6.831-5-3.267 5.545 4.95.198 3.12-4.95-2.724 3.811 3.07-6.881-4.208 3.366 2.97-7.92-3.762-1.684-2.624 2.08-1.782Zm-26.386-6.98 2.128 2.277-2.425-3.811 3.267 3.86-3.317-4.702 3.416-3.812-3.861 2.871 4.505-4.802-4.208 3.268 4.406-4.406 2.722 2.87-2.03-3.91 5.793 6.386 1.485.891L68.464 89.97l-4.357-3.02-.544 1.436v.149l-1.288-.941 1.189 1.881-2.822-2.673 2.574 3.762-5.495-6.237 5.842 8.465-4.06 6.683-1.733-3.07.99 4.209-3.86-8.218 2.92 9.208-5.94-14.555 4.554 14.703-6.782-17.425-5.446-3.12 2.08.496-1.14-2.03Z" fill="#fff"/><path d="M92.177 132.972H8.316a3.708 3.708 0 0 1-3.712-3.713v-17.624a3.708 3.708 0 0 1 3.712-3.713h83.862a3.708 3.708 0 0 1 3.713 3.713v17.624a3.708 3.708 0 0 1-3.713 3.713Z" fill="#183B65"/><path d="M33.019 112.328v-4.406h1.633c.347 0 .644.049.842.198.247.148.396.297.544.495.1.198.198.446.198.743s-.05.544-.198.742a1.073 1.073 0 0 1-.544.495c-.248.149-.495.198-.842.198h-1.089v-.643h.99c.198 0 .347-.05.495-.099.149-.05.198-.149.297-.297a.934.934 0 0 0 .1-.396.935.935 0 0 0-.1-.397c-.05-.099-.148-.198-.297-.297-.148-.049-.297-.099-.495-.099h-.742v3.713h-.792v.05Zm5.247.049c-.346 0-.594-.049-.841-.198-.248-.148-.396-.346-.545-.594-.149-.247-.198-.544-.198-.891 0-.346.05-.643.198-.891.148-.247.297-.445.544-.594.248-.149.496-.198.842-.198.347 0 .594.049.842.198.247.149.396.347.544.594.149.248.198.545.198.891 0 .347-.05.644-.198.891-.148.248-.297.446-.544.594-.248.099-.545.198-.842.198Zm0-.643c.198 0 .297-.05.446-.149.099-.099.198-.247.247-.396.05-.148.1-.346.1-.544 0-.198-.05-.396-.1-.545a1.082 1.082 0 0 0-.247-.396c-.1-.099-.248-.148-.446-.148s-.346.049-.445.148a1.082 1.082 0 0 0-.248.396 1.77 1.77 0 0 0-.099.545c0 .198.05.396.099.544.05.149.148.297.248.396.099.099.247.149.445.149Zm2.822.594-.94-3.317h.791l.594 2.327h.05l.594-2.327h.792l.594 2.327h.05l.594-2.327h.792l-.94 3.317h-.793l-.594-2.228h-.05l-.593 2.228h-.941Zm5.743.049c-.347 0-.595-.049-.842-.198-.248-.148-.446-.346-.545-.594-.148-.247-.198-.544-.198-.891 0-.346.05-.643.198-.891.149-.247.297-.445.545-.594.248-.149.495-.198.842-.198.198 0 .396.05.594.099.198.05.346.149.495.297.148.149.247.297.346.495.1.198.1.446.1.743v.247h-2.724v-.544h1.98a.93.93 0 0 0-.098-.396 1.329 1.329 0 0 0-.248-.297.925.925 0 0 0-.396-.099.925.925 0 0 0-.396.099l-.297.297a.93.93 0 0 0-.099.396v.445c0 .198.05.347.099.495.05.149.149.248.297.297.148.05.297.099.445.099.1 0 .199 0 .298-.049.099-.05.148-.099.247-.149.05-.049.1-.148.149-.247l.742.099c-.05.198-.148.346-.247.495a1.786 1.786 0 0 1-.495.346 1.691 1.691 0 0 1-.792.198Zm2.128-.049v-3.317h.743v.545h.05a.722.722 0 0 1 .296-.446.837.837 0 0 1 .495-.149h.297v.694c-.049 0-.099 0-.148-.05h-.198c-.149 0-.248.05-.396.099a.6.6 0 0 0-.248.248.93.93 0 0 0-.099.396v1.93h-.792v.05Zm3.713.049c-.346 0-.594-.049-.841-.198-.248-.148-.446-.346-.545-.594-.148-.247-.198-.544-.198-.891 0-.346.05-.643.198-.891.149-.247.297-.445.545-.594.247-.149.495-.198.841-.198.198 0 .396.05.594.099.198.05.347.149.495.297.149.149.248.297.347.495.099.198.099.446.099.743v.247h-2.723v-.544h1.98a.93.93 0 0 0-.099-.396 1.322 1.322 0 0 0-.247-.297.925.925 0 0 0-.396-.099.926.926 0 0 0-.396.099l-.297.297a.93.93 0 0 0-.1.396v.445c0 .198.05.347.1.495.05.149.148.248.297.297.148.05.297.099.445.099.1 0 .198 0 .297-.049.1-.05.149-.099.248-.149.05-.049.099-.148.148-.247l.743.099c-.05.198-.149.346-.248.495a1.787 1.787 0 0 1-.495.346 1.692 1.692 0 0 1-.792.198Zm3.317 0c-.247 0-.495-.049-.693-.198-.198-.148-.347-.346-.495-.594a2.412 2.412 0 0 1-.198-.94c0-.347.05-.693.198-.941.099-.247.297-.445.495-.594.198-.149.446-.198.693-.198.198 0 .347.049.495.099a.51.51 0 0 1 .297.248c.05.099.149.198.149.247h.05v-1.584h.791v4.406h-.742v-.495h-.05c-.05.099-.099.148-.198.247s-.198.149-.297.248c-.148 0-.297.049-.495.049Zm.248-.643c.148 0 .297-.05.396-.149.099-.099.198-.198.247-.396.05-.148.1-.346.1-.544 0-.198-.05-.396-.1-.545-.05-.148-.148-.297-.247-.346-.1-.099-.248-.149-.446-.149s-.297.05-.445.149a.778.778 0 0 0-.248.396c-.05.148-.1.346-.1.544 0 .198.05.396.1.545.05.148.148.297.248.396.148.049.297.099.495.099Zm3.91.594v-4.406h1.684c.297 0 .594.049.792.148.198.099.346.248.495.396.099.149.148.347.148.594 0 .199-.05.347-.099.446a.444.444 0 0 1-.297.297.563.563 0 0 1-.396.149v.049a.8.8 0 0 1 .446.149c.148.099.247.198.346.346.1.149.149.347.149.594 0 .248-.05.446-.149.594-.099.198-.297.347-.495.446-.198.099-.495.148-.841.148h-1.782v.05Zm.793-.693h.841c.297 0 .495-.05.644-.149.148-.099.198-.247.198-.445a.71.71 0 0 0-.1-.347.505.505 0 0 0-.296-.247.982.982 0 0 0-.446-.099h-.89v1.287h.049Zm0-1.832h.792c.148 0 .247-.049.396-.099a1.04 1.04 0 0 0 .247-.198.714.714 0 0 0 .1-.346.451.451 0 0 0-.199-.397c-.099-.099-.297-.148-.544-.148h-.792v1.188Zm3.613 3.762c-.099 0-.198 0-.297-.049-.099 0-.148-.05-.198-.05l.198-.594c.1.05.198.05.297.05.1 0 .149-.05.248-.099.05-.05.148-.149.198-.248l.05-.198-1.189-3.366h.842l.743 2.475h.049l.743-2.475h.841l-1.336 3.713a.954.954 0 0 1-.248.445c-.099.149-.247.198-.396.297-.148.05-.347.099-.545.099Zm-29.206 8.713c-.693 0-1.287-.198-1.683-.594-.396-.396-.644-.99-.594-1.733v-1.336c0-.743.198-1.337.643-1.733.396-.396.99-.594 1.684-.594.693 0 1.237.198 1.584.594.396.396.544.891.594 1.584v.05h-.891v-.05c0-.346-.1-.693-.347-.94-.198-.248-.545-.396-.99-.396-.446 0-.792.148-1.04.396-.247.247-.396.643-.396 1.089v1.386c0 .446.149.842.396 1.089.248.248.594.396 1.04.396.445 0 .743-.148.99-.396.198-.247.347-.594.347-.941v-.148h.89v.099c0 .693-.197 1.188-.593 1.584-.396.396-.94.545-1.634.594Zm3.367 1.534v-.742h2.277c.148 0 .247-.099.247-.248v-1.237h-.148a1.5 1.5 0 0 1-.248.346 1.085 1.085 0 0 1-.396.248 2.927 2.927 0 0 1-.643.099c-.297 0-.594-.05-.842-.198a1.715 1.715 0 0 1-.594-.594 1.948 1.948 0 0 1-.198-.892v-2.475h.842v2.376c0 .347.098.594.247.792.198.199.446.248.743.248.148 0 .297 0 .445-.099.149-.05.297-.149.396-.248.198-.247.347-.544.347-.99v-2.079h.841v4.901c0 .099 0 .198-.05.297l-.148.297c-.099.099-.148.149-.297.198-.099.05-.198.05-.297.05h-2.524v-.05Zm8.266-4.9c-.149-.297-.396-.544-.693-.742-.297-.149-.594-.248-.941-.248-.247 0-.446.05-.693.099a2.03 2.03 0 0 0-.446.248c-.099.099-.198.198-.247.297h-.149v-2.228h-.841v5.792h.841v-.594h.149c.099.198.297.346.495.495.198.149.544.198.94.198.347 0 .644-.099.941-.247.297-.149.545-.397.693-.694.198-.346.297-.742.248-1.138v-.149a4.471 4.471 0 0 0-.297-1.089Zm-.594 1.238c0 .445-.1.792-.347 1.039-.099.099-.248.198-.396.297-.148.05-.346.099-.495.099-.149 0-.347 0-.495-.099a1.07 1.07 0 0 1-.396-.247c-.248-.248-.347-.594-.347-1.04v-.099c0-.445.1-.792.347-.99.247-.247.594-.346.891-.346.346 0 .644.148.891.346.248.248.347.594.347.99v.05Zm5.396-.149c0-.396-.099-.743-.247-1.089-.149-.297-.396-.545-.693-.743a1.49 1.49 0 0 0-1.04-.247c-.396 0-.742.099-1.089.247-.297.149-.544.446-.693.743-.198.346-.248.742-.248 1.089v.099c0 .396.1.743.248 1.089.148.297.445.545.743.743.346.198.693.247 1.089.247.297 0 .643-.049.89-.198a2.31 2.31 0 0 0 .595-.445c.148-.149.247-.297.346-.495l-.693-.347a1.253 1.253 0 0 1-.396.495c-.148.149-.396.198-.742.198-.297 0-.644-.099-.842-.297a1.074 1.074 0 0 1-.247-.396c-.05-.148-.1-.297-.1-.445h3.12v-.248Zm-3.118-.297c.049-.297.148-.545.346-.743a.912.912 0 0 1 .792-.247c.297 0 .545.099.792.247.1.099.198.198.248.347a.93.93 0 0 1 .099.396h-2.278Zm3.812 2.426v-4.059h.841v.495h.149a.772.772 0 0 1 .297-.396.998.998 0 0 1 .544-.149h.495v.793h-.544c-.248 0-.495.049-.693.247-.198.149-.248.396-.248.693v2.426h-.841v-.05Zm6.038.148c-.396 0-.792-.049-1.139-.247-.346-.149-.594-.396-.792-.693a2.12 2.12 0 0 1-.297-1.089v-.198h.891v.198c0 .396.1.693.347.94.297.198.643.347.99.297.396 0 .742-.099.94-.247.1-.099.199-.198.248-.297a.934.934 0 0 0 .099-.396.8.8 0 0 0-.148-.446c-.1-.148-.248-.198-.446-.297-.198-.099-.446-.148-.644-.198l-.297-.099a7.789 7.789 0 0 1-.99-.347c-.247-.099-.445-.297-.643-.544a1.672 1.672 0 0 1-.248-.842c0-.297.1-.594.248-.891.198-.247.445-.445.693-.544a2.577 2.577 0 0 1 1.04-.198c.346 0 .742.049 1.089.198.297.148.544.346.742.594.198.297.297.643.297 1.039v.297h-.891v-.297c0-.198-.05-.445-.148-.594-.1-.148-.248-.247-.446-.346-.198-.099-.396-.099-.644-.099-.346 0-.643.099-.841.247-.1.05-.149.149-.198.248-.05.099-.1.198-.05.346a.8.8 0 0 0 .149.446c.099.099.247.198.396.297.198.099.396.148.643.198l.297.099c.347.049.694.198.99.346.248.1.496.298.694.545.198.248.247.545.247.842 0 .346-.099.643-.247.891-.198.247-.446.495-.743.594-.396.148-.792.247-1.188.247Zm2.774-4.207v4.059h.841v-4.059h-.841Zm.841-1.535a.684.684 0 0 0-.198-.149c-.05-.049-.148-.049-.247-.049a.798.798 0 0 0-.446.148c-.05.05-.099.099-.148.198-.05.05-.05.149-.05.248s0 .148.05.247c.049.05.05.149.148.198.1.1.248.149.446.149.099 0 .148 0 .247-.049.05-.05.149-.05.198-.1a.676.676 0 0 0 .149-.198c.05-.049.05-.148.05-.247s0-.149-.05-.248l-.149-.148Zm4.702 3.465c0-.396-.099-.743-.247-1.089-.149-.297-.396-.545-.693-.743a1.49 1.49 0 0 0-1.04-.247c-.396 0-.743.099-1.09.247-.296.149-.544.446-.692.743-.198.346-.248.742-.248 1.089v.099c0 .396.1.743.248 1.089.148.297.445.545.742.743.347.198.693.247 1.09.247.297 0 .643-.049.89-.198a2.31 2.31 0 0 0 .595-.445c.148-.149.247-.297.346-.495l-.693-.347a1.253 1.253 0 0 1-.396.495c-.148.149-.396.198-.742.198-.297 0-.644-.099-.842-.297a1.074 1.074 0 0 1-.248-.396 1.428 1.428 0 0 1-.099-.445h3.12v-.248Zm-3.119-.297c.05-.297.149-.545.347-.743a.912.912 0 0 1 .792-.247c.297 0 .545.099.792.247.1.099.198.198.248.347.05.148.099.247.099.396h-2.278Zm3.812 2.426v-4.059h.842v.495h.148a.772.772 0 0 1 .298-.396.998.998 0 0 1 .544-.149h.495v.793h-.544c-.248 0-.495.049-.693.247-.199.149-.248.396-.248.693v2.426h-.842v-.05Zm2.871 0v-4.059h.842v.495h.149a.772.772 0 0 1 .297-.396.999.999 0 0 1 .544-.149h.495v.793h-.544c-.248 0-.495.049-.693.247-.198.149-.248.396-.248.693v2.426h-.841v-.05Zm6.339-.694c-.149 0-.248-.099-.248-.247v-1.684c0-.495-.148-.891-.446-1.138-.297-.248-.742-.396-1.237-.396-.297 0-.594.049-.891.148a1.352 1.352 0 0 0-.594.446 1.673 1.673 0 0 0-.297.594l.792.247c.05-.198.148-.396.297-.544.198-.149.445-.248.693-.198.297 0 .495.049.643.198.05.099.149.148.149.247.05.099.05.198.05.297v.248h-1.238a2.05 2.05 0 0 0-.792.148 1.548 1.548 0 0 0-.545.446c-.148.198-.198.445-.198.693 0 .248.05.495.198.693.149.198.347.347.545.446.247.099.495.148.792.148.247 0 .445-.049.693-.099a.765.765 0 0 0 .396-.297c.099-.099.148-.198.198-.297h.148c0 .099 0 .149.05.248.05.049.099.148.148.198a.836.836 0 0 0 .495.148h.644v-.693h-.445Zm-1.09-.99c0 .148 0 .297-.05.446-.049.148-.148.247-.247.396a1.344 1.344 0 0 1-.841.297c-.198 0-.396-.05-.594-.149-.05-.049-.149-.099-.149-.198a.445.445 0 0 1-.05-.247c0-.099 0-.149.05-.248.05-.049.1-.149.149-.198a.998.998 0 0 1 .544-.149h1.188v.05Zm-46.189-3.713v-.099l-.05-.049c-1.089-.347-2.128-.941-3.217-1.287a29.69 29.69 0 0 1 .247 3.663c.545-.544 1.139-.99 1.733-1.435a24.08 24.08 0 0 1-1.436 1.732c.891 0 1.832.099 2.723.248v-2.773Zm-1.287 5.001a24.39 24.39 0 0 1-1.733-1.436c0 1.238-.099 2.426-.247 3.663.99-.396 1.831-.94 2.475-1.732a3.978 3.978 0 0 0 .842-2.228v-.248a16.82 16.82 0 0 1-2.723.248c.445.544.94 1.138 1.386 1.733Zm-4.208-4.208c.594.445 1.188.94 1.733 1.435 0-1.237.099-2.426.247-3.663-1.089.346-2.129.94-3.218 1.287-.05 0-.05 0-.05.049v2.822a16.93 16.93 0 0 1 2.724-.247c-.495-.495-.99-1.04-1.436-1.683Zm0 4.208c.445-.595.94-1.189 1.436-1.733-.892 0-1.832-.099-2.723-.248v.248c0 .742.297 1.485.742 2.129.644.891 1.535 1.435 2.525 1.831-.148-1.237-.247-2.425-.247-3.663-.545.544-1.139.99-1.733 1.436Z" fill="#fff"/><path d="M31.739 35.024v-.072c0-.498.879-.617.879-1.544v-12.95c0-.927-.88-1.046-.88-1.569v-.071c0-.214.19-.333.5-.333h3.707c.309 0 .499.119.499.333v.071c0 .523-.95.642-.95 1.568v12.95c0 .928.95 1.047.95 1.546v.07c0 .215-.19.333-.5.333h-3.706c-.31 0-.5-.118-.5-.332Zm13.396.57c-4.681 0-6.867-2.543-6.867-4.23 0-.665.404-1.212 1.164-1.188 2.162.072 1.378 4.277 5.822 4.277 1.925 0 3.256-1.14 3.256-2.851 0-5.465-9.886-1.45-9.886-8.578 0-2.662 2.21-4.753 6.131-4.753 4.063 0 6.392 2.186 6.368 3.992 0 .737-.404 1.212-1.235 1.212-2.234 0-1.212-4.063-5.204-4.063-2.091 0-3.16 1.307-3.16 2.828 0 5.132 9.884 1.568 9.884 8.578 0 3.018-2.922 4.776-6.273 4.776Zm16.095 0c-5.037 0-8.435-4.04-8.435-8.673 0-5.014 3.398-8.674 8.316-8.674 4.99 0 8.27 4.088 8.27 8.769 0 4.847-3.54 8.578-8.15 8.578Zm.76-1.283c2.71 0 4.563-2.376 4.563-5.204 0-5.275-2.614-9.576-6.44-9.576-2.708 0-4.49 2.186-4.49 5.251 0 5.252 2.542 9.529 6.368 9.529ZM30.91 57.34c.261 0 .451.19.38.475l-.69 3.018c-.094.285-.284.522-.593.522H19.314c-.285 0-.523-.19-.523-.475v-.237c0-4.895 8.697-7.77 8.697-12.12 0-1.948-1.378-3.089-2.566-3.089-2.994 0-2.52 4.206-4.515 4.206-.832 0-1.45-.498-1.45-1.378 0-1.806 2.305-4.016 5.822-4.016 3.208 0 5.537 1.474 5.537 4.515 0 4.92-8.222 6.796-9.125 10.55h7.224c1.544 0 1.64-1.971 2.281-1.971h.214Zm12.64-12.855c.333 0 .5.166.5.428v.261c0 .143-.12.594-.286.998l-5.988 14.685c-.119.333-.404.5-.737.5h-1.71a.496.496 0 0 1-.476-.713l7.2-13.95h-7.152c-1.212 0-1.307 2.14-2.139 2.14h-.261c-.285 0-.476-.19-.428-.547l.499-3.184c.071-.404.238-.618.69-.618H43.55Zm8.288 17.11c-4.04 0-7.105-3.328-7.105-8.722 0-5.299 2.59-8.626 6.987-8.626 4.016 0 7.033 3.517 7.033 8.721 0 5.394-2.994 8.626-6.914 8.626Zm.428-1.165c2.068 0 3.66-2.305 3.66-6.179 0-4.538-1.925-8.792-4.658-8.792-2.138 0-3.707 2.353-3.707 6.369 0 4.68 1.925 8.602 4.705 8.602Zm15.304 1.164c-4.04 0-7.105-3.327-7.105-8.72 0-5.3 2.59-8.627 6.986-8.627 4.016 0 7.034 3.517 7.034 8.721 0 5.394-2.994 8.626-6.915 8.626Zm.428-1.164c2.067 0 3.659-2.305 3.659-6.179 0-4.538-1.925-8.792-4.657-8.792-2.14 0-3.707 2.353-3.707 6.369 0 4.68 1.924 8.602 4.705 8.602Zm8.821.926c-.333 0-.475-.118-.475-.332v-.072c0-.522 1.188-.712 1.188-1.734V48.026c0-1.45-1.569-.737-1.569-1.521v-.095c0-.238.19-.38.547-.547l2.9-1.283c.83-.356 1.33 0 1.33.475 0 .57-.57.666-.57 1.83v12.333c0 1.022 1.259 1.212 1.259 1.734v.072c0 .214-.166.332-.475.332H76.82Z" fill="#183B65"/></svg>