<svg width="36" height="36" viewBox="0 0 36 36" fill="none" xmlns="http://www.w3.org/2000/svg">
<path d="M25.1558 22.6968C24.777 23.1251 24.3794 23.5481 23.9637 23.9637C17.9521 29.9754 10.4204 32.1906 7.14133 28.9115C4.89326 26.6635 5.22758 22.4166 7.59721 18.0311M10.8456 13.4144C11.2398 12.9661 11.6545 12.5236 12.0891 12.0891C18.1008 6.07743 25.6324 3.86223 28.9115 7.14133C31.1611 9.39094 30.8248 13.6421 28.4507 18.0308M19.3967 17.9972C19.3967 18.7701 18.7702 19.3966 17.9973 19.3966C17.2244 19.3966 16.5979 18.7701 16.5979 17.9972C16.5979 17.2243 17.2244 16.5978 17.9973 16.5978C18.7702 16.5978 19.3967 17.2243 19.3967 17.9972Z" stroke="#183B65" stroke-width="1.5" stroke-linecap="round" stroke-linejoin="round"/>
<path d="M28.9115 28.9115C32.1906 25.6324 29.9754 18.1008 23.9637 12.0891C17.9521 6.07743 10.4204 3.86223 7.14133 7.14133C3.86223 10.4204 6.07743 17.9521 12.0891 23.9638C18.1008 29.9754 25.6324 32.1906 28.9115 28.9115Z" stroke="url(#paint0_linear_3658_110)" stroke-width="1.5" stroke-linecap="round" stroke-linejoin="round"/>
<defs>
<linearGradient id="paint0_linear_3658_110" x1="18.0264" y1="5.625" x2="18.0264" y2="30.4279" gradientUnits="userSpaceOnUse">
<stop stop-color="#00B4E5"/>
<stop offset="1" stop-color="#2DD9C3"/>
</linearGradient>
</defs>
</svg>
