<svg width="36" height="36" viewBox="0 0 36 36" fill="none" xmlns="http://www.w3.org/2000/svg">
<path d="M11.5313 14.625L5.0625 17.903L17.5371 24.2244C17.7069 24.3104 17.7917 24.3534 17.8807 24.3703C17.9596 24.3853 18.0404 24.3853 18.1193 24.3703C18.2083 24.3534 18.2932 24.3104 18.4629 24.2244L30.9375 17.903L24.4688 14.625M11.5313 21.181L5.0625 24.4589L17.5371 30.7803C17.7069 30.8663 17.7917 30.9093 17.8807 30.9263C17.9596 30.9412 18.0404 30.9412 18.1193 30.9263C18.2083 30.9093 18.2932 30.8663 18.4629 30.7803L30.9375 24.4589L24.4688 21.181" stroke="url(#paint0_linear_3599_308)" stroke-width="1.5" stroke-linecap="round" stroke-linejoin="round"/>
<path d="M18.4629 5.21943C18.2931 5.13356 18.2083 5.09062 18.1193 5.07373C18.0404 5.05876 17.9596 5.05876 17.8807 5.07373C17.7917 5.09062 17.7069 5.13356 17.5371 5.21943L5.0625 11.5312L17.5371 17.8431C17.7069 17.9289 17.7917 17.9719 17.8807 17.9888C17.9596 18.0037 18.0404 18.0037 18.1193 17.9888C18.2083 17.9719 18.2931 17.9289 18.4629 17.8431L30.9375 11.5312L18.4629 5.21943Z" stroke="#183B65" stroke-width="1.5" stroke-linecap="round" stroke-linejoin="round"/>
<defs>
<linearGradient id="paint0_linear_3599_308" x1="18" y1="14.625" x2="18" y2="30.9375" gradientUnits="userSpaceOnUse">
<stop stop-color="#00B4E5"/>
<stop offset="1" stop-color="#2DD9C3"/>
</linearGradient>
</defs>
</svg>
