<svg width="125" height="49" viewBox="0 0 125 49" fill="none" xmlns="http://www.w3.org/2000/svg">
<path d="M73.4867 9.11711C73.2352 9.2145 72.6374 9.66902 72.1655 10.1235C69.9637 12.2338 71.3162 15.6751 74.336 15.7076C76.6951 15.7076 78.1736 13.435 77.293 11.0975C76.7895 9.73396 74.7134 8.63013 73.4867 9.11711Z" fill="white"/>
<path d="M35.1097 24.5379C35.1097 32.3622 34.9839 38.4331 34.8266 38.2707C34.7008 38.0759 34.0089 36.5502 33.2853 34.8619C32.5934 33.1737 31.0835 29.6675 29.9511 27.0702C28.85 24.473 26.8683 19.9603 25.5786 17.006L23.2824 11.6492L19.9795 11.5518L16.7081 11.4544L15.2297 14.7984C14.4119 16.6489 11.9898 22.2329 9.81933 27.2326C7.68033 32.2322 5.47843 37.3294 4.94367 38.5305L4 40.7382L7.83762 40.6408L11.6752 40.5434L12.9335 37.8811L14.1917 35.1867H19.8537H25.5472L26.8683 37.9461L28.1895 40.7056H34.9526H41.7154V37.8487C41.747 35.0567 41.747 35.0243 42.9422 33.6283L44.1376 32.1998L46.4967 36.3878L48.8246 40.5434L52.8194 40.6408C55.0212 40.6732 56.8142 40.6408 56.8142 40.5434C56.8142 40.381 55.7761 38.6279 51.3409 31.3232L48.8873 27.33L50.869 25.2522L52.8507 23.1744H55.3043H57.7578V28.9207C57.7578 32.1674 57.9152 35.2841 58.1039 35.9982C59.2363 40.1539 65.0871 42.2966 69.2079 40.0889L70.9693 39.1149V39.9264V40.7382L74.4609 40.6408L77.9211 40.5434L77.8897 32.7518C77.8897 28.2389 77.9841 25.0899 78.1412 25.2847C78.2986 25.4794 79.5253 28.7585 80.8778 32.5894C82.199 36.4202 83.4574 39.829 83.6145 40.1539C83.8662 40.6732 84.3067 40.7056 87.5152 40.6408L91.1639 40.5434L92.9255 35.5763L94.7185 30.6091L95.0646 32.005C96.197 36.4202 98.9336 39.3097 103.18 40.5758C105.822 41.3226 109.629 41.0628 111.956 39.9591C119.38 36.4528 120.921 26.6157 114.913 21.0642C112.648 18.9214 110.509 18.1748 106.672 18.1748C103.904 18.1423 103.306 18.2397 101.702 19.0188C100.695 19.5058 99.4369 20.2201 98.9336 20.6097L97.99 21.2914L98.4618 20.0902C98.7449 19.4084 98.965 18.824 98.965 18.7591C98.965 18.6942 97.4238 18.6293 95.5364 18.6293H92.1076L91.0068 22.103C90.3776 24.051 89.3709 27.3624 88.7103 29.5051L87.5466 33.4009L85.2188 25.9989L82.8912 18.6293H76.9144H70.9693V28.7585C70.9693 38.8877 70.8121 40.1212 70.0256 36.2254C69.6797 34.6023 69.3337 34.1801 68.9248 34.8619C68.8304 35.0243 67.9495 35.1867 67.0058 35.1867C65.4646 35.1867 65.2759 35.1217 64.9927 34.3425C64.804 33.8879 64.6783 31.1934 64.6783 28.3363V23.1744H67.5093H70.3403V20.9018V18.6293H67.5093H64.6783V15.8697V13.1102H61.2181H57.7578V15.8697V18.6293H53.4169H49.076L45.4901 22.3628C43.54 24.4081 41.8727 26.0963 41.8098 26.0963C41.7784 26.0963 41.7154 22.59 41.7154 18.3046V10.5129H38.4125H35.1097V24.5379ZM21.6781 24.5055C22.4644 26.7131 23.188 28.7909 23.3137 29.0831C23.5341 29.6351 23.2194 29.6675 19.6964 29.6675C16.7396 29.6675 15.8903 29.5701 16.0161 29.2455C19.319 20.772 19.8223 19.6032 20.0425 20.0253C20.1996 20.285 20.9232 22.2978 21.6781 24.5055ZM109.692 25.3821C111.705 27.6222 111.956 30.0571 110.415 32.7842C108.968 35.4139 105.885 35.9332 103.809 33.8555C100.286 30.3493 102.614 23.4666 107.144 23.9211C108.276 24.051 108.748 24.3432 109.692 25.3821Z" fill="white"/>
<path d="M115.921 13.8565C113.908 15.2525 113.751 17.9471 115.638 19.6678C117.431 21.3885 120.168 20.6093 121.174 18.1095C121.772 16.6161 121.174 14.8305 119.759 13.8565C118.406 12.915 117.274 12.915 115.921 13.8565ZM119.665 14.7331C121.552 16.5511 120.419 19.6029 117.84 19.6029C115.261 19.6029 114.128 16.5511 116.016 14.7331C116.928 13.8565 118.752 13.8565 119.665 14.7331Z" fill="white"/>
<path d="M116.582 16.844C116.582 17.8179 116.739 18.6295 116.897 18.6295C117.085 18.6295 117.211 18.4023 117.211 18.1426C117.211 17.4932 117.809 17.5257 118.532 18.2075C119.161 18.7919 119.759 18.5321 119.161 17.9153C118.91 17.6556 118.91 17.3634 119.13 16.9414C119.728 15.8051 119.193 15.0583 117.809 15.0583H116.582V16.844ZM118.595 15.9999C118.847 16.3894 117.935 17.1037 117.526 16.844C116.991 16.4868 117.18 15.7077 117.809 15.7077C118.155 15.7077 118.501 15.8375 118.595 15.9999Z" fill="white"/>
</svg>
