<svg width="173" height="49" viewBox="0 0 173 49" fill="none" xmlns="http://www.w3.org/2000/svg">
<path d="M22.4012 6.41203C20.7895 6.90254 17.426 7.90693 14.9267 8.65438C3.92512 11.8778 0.0477063 13.0924 0.000990506 13.3026C-0.0457253 13.4194 1.56597 14.0033 3.57475 14.5639L7.21858 15.5917V17.3902C7.21858 18.7216 7.12515 19.2822 6.86821 19.4925C6.44777 19.8428 6.40106 20.5669 6.77478 20.8005C7.05508 20.964 6.985 21.7815 6.42441 24.5144C5.46674 29.2093 5.34995 29.84 5.34995 30.5875C5.34995 31.3116 5.44338 31.405 6.26091 31.6619C6.89157 31.8488 7.61567 31.8721 8.52662 31.732C9.69452 31.5451 9.90474 31.4283 10.0449 30.9378C10.1383 30.6108 10.2084 30.5174 10.2318 30.7276C10.2785 31.4984 12.3573 35.2824 13.5252 36.7072C15.0902 38.6459 17.1924 40.3277 19.4581 41.4489C21.2333 42.3598 21.9341 42.5701 21.9341 42.2197C21.9341 42.0095 20.4625 35.4693 18.5238 27.0137C17.6829 23.3699 17.0523 20.3333 17.1223 20.2633C17.3559 20.0063 21.8173 19.0487 21.9574 19.2122C22.0508 19.3056 22.8684 22.7392 23.8027 26.8502C24.737 30.9612 25.5779 34.4649 25.648 34.6284C25.7648 34.8386 26.0918 34.4182 26.6056 33.4605C29.7122 27.5976 33.6597 22.8793 38.0744 19.726C40.0131 18.3479 43.6803 16.5494 46.0861 15.7785C47.8613 15.1946 54.3315 12.6486 55.4293 12.088L56.1534 11.7143L55.5694 11.5274C55.2424 11.4106 51.5285 10.6398 47.3241 9.79892C43.0963 8.9814 39.5693 8.23394 39.4758 8.18723C39.3824 8.11715 37.8408 7.8135 36.0656 7.48649C34.267 7.15948 31.2772 6.57553 29.4319 6.17844C27.5867 5.80472 25.9049 5.47771 25.6947 5.50107C25.4845 5.50107 24.0129 5.92151 22.4012 6.41203ZM9.95146 16.3391L11.1427 16.6895L10.6055 18.0443C9.9281 19.726 9.32079 22.5757 9.29743 24.3275L9.27408 25.6823L8.87699 24.1173C8.66677 23.2531 8.43319 22.4823 8.33976 22.3888C8.08282 22.1319 8.10618 21.1742 8.38648 21.0107C8.52662 20.9406 8.62006 20.5669 8.62006 20.1932C8.62006 19.8195 8.52662 19.4457 8.38648 19.3757C8.26969 19.3056 8.1529 18.5114 8.1529 17.6005C8.1529 15.7785 8.12954 15.8019 9.95146 16.3391ZM28.848 22.3888C29.8757 23.4166 29.8991 24.3275 28.9648 25.3786C27.1662 27.3874 23.9896 25.1451 25.2976 22.7859C26.0684 21.4078 27.6801 21.2209 28.848 22.3888Z" fill="white"/>
<path d="M87.9218 11.9983C86.4503 12.6056 85.9831 14.918 87.081 16.0859C88.2021 17.2772 90.2343 17.067 91.0985 15.6655C91.6357 14.7779 91.6591 14.1005 91.1919 13.1895C90.608 12.045 89.1364 11.5078 87.9218 11.9983Z" fill="white"/>
<path d="M144.797 25.9187V40.0502H146.315C147.974 40.0502 148.301 39.7933 148.301 38.4385C148.301 37.5743 148.441 37.5275 149.001 38.2516C149.235 38.5553 149.982 39.0925 150.683 39.4663C151.781 40.0969 152.131 40.167 153.906 40.167C156.382 40.167 157.877 39.5597 159.372 37.948C161.311 35.8691 162.128 33.4166 162.128 29.6559C162.105 24.5873 160.073 21.2938 156.429 20.4296C154.117 19.869 151.571 20.523 149.772 22.158C149.258 22.6252 148.768 22.9989 148.674 22.9989C148.604 22.9989 148.534 20.4763 148.534 17.393V11.7871H146.666H144.797V25.9187ZM155.378 23.5595C157.153 24.307 158.111 26.1055 158.298 29.0019C158.601 33.9304 156.873 36.8735 153.486 37.1772C151.758 37.3407 150.613 36.967 149.445 35.9159L148.534 35.0983V30.4735V25.8486L149.492 24.9844C151.314 23.3493 153.603 22.7887 155.378 23.5595Z" fill="white"/>
<path d="M169.203 11.9983C167.732 12.6056 167.264 14.918 168.362 16.0859C169.483 17.2772 171.516 17.067 172.38 15.6655C172.917 14.7779 172.94 14.1005 172.473 13.1895C171.889 12.045 170.418 11.5078 169.203 11.9983Z" fill="white"/>
<path d="M60.4727 26.2671V40.0482H62.4581H64.4435V33.7416V27.435H65.7515C66.4523 27.435 67.2464 27.5284 67.48 27.6685C67.7136 27.7853 70.1428 30.5649 72.8757 33.8584C78.3648 40.4687 77.9444 40.1417 80.9342 40.0015L82.5926 39.9314L77.3838 33.508C74.5108 29.981 71.7779 26.7342 71.3107 26.2904L70.4698 25.5196L71.5209 24.4218C72.0815 23.8379 74.6743 20.8948 77.267 17.9049L81.9853 12.4859H80.0466C78.9721 12.4859 77.8743 12.556 77.594 12.6261C77.3137 12.6961 74.9779 15.1954 72.3618 18.232C69.7691 21.2451 67.4333 23.8612 67.1764 24.0481C66.8961 24.2349 66.172 24.3984 65.5647 24.3984H64.4435V18.4422V12.4859H62.4581H60.4727V26.2671Z" fill="white"/>
<path d="M43.397 18.7708C40.524 20.8964 37.7677 23.9329 35.4086 27.5767C34.1005 29.6089 31.5078 34.7476 31.5078 35.3082C31.5078 35.5418 32.045 36.1024 32.7458 36.5929C33.3998 37.0834 34.848 38.1112 35.9458 38.882C37.0436 39.6528 38.048 40.2834 38.2115 40.2834C38.632 40.2834 40.6174 38.625 41.8554 37.2469C43.397 35.5184 44.7517 33.1593 45.5926 30.7534C46.5737 27.857 46.7372 23.7694 46.0131 20.5927C45.2656 17.4161 45.2656 17.3927 43.397 18.7708Z" fill="white"/>
<path d="M105.673 20.5228C104.412 20.9199 103.758 21.2937 102.59 22.2046L101.632 22.9988L101.469 21.9944C101.235 20.5929 101.025 20.4294 99.4601 20.4294H98.082V30.2397V40.05H99.9507H101.819V32.9726V25.8952L102.473 25.2879C103.875 23.9798 105.019 23.4192 106.538 23.3024C108.383 23.1856 109.411 23.6528 110.158 24.9842C110.672 25.8952 110.695 26.1054 110.695 32.9726V40.05H112.564H114.433V32.8091C114.433 25.9886 114.409 25.4981 113.942 24.2367C113.265 22.4148 111.91 21.0601 110.251 20.5696C108.757 20.1258 106.981 20.1024 105.673 20.5228Z" fill="white"/>
<path d="M126.884 20.5436C122.516 21.7582 120.25 25.075 120.25 30.2371C120.25 34.9554 122.165 38.1788 125.833 39.6037C127.631 40.3278 131.275 40.3745 133.003 39.7204C136.857 38.2489 138.82 35.0255 138.82 30.2371C138.82 25.4955 136.881 22.2955 133.12 20.8005C131.695 20.2166 128.472 20.0998 126.884 20.5436ZM131.836 23.6736C132.91 24.1641 133.891 25.2152 134.428 26.4765C134.942 27.6211 135.106 31.1948 134.755 32.8766C134.218 35.446 132.163 37.2445 129.733 37.2445C127.187 37.2445 125.646 36.2868 124.688 34.1613C124.221 33.0868 124.127 32.5496 124.127 30.2371C124.127 27.8313 124.197 27.4108 124.735 26.2429C125.389 24.8882 126.51 23.8137 127.678 23.4633C128.846 23.113 130.854 23.2064 131.836 23.6736Z" fill="white"/>
<path d="M87.1055 30.2397V40.05H88.9741H90.8427V30.2397V20.4294H88.9741H87.1055V30.2397Z" fill="white"/>
<path d="M168.387 30.2397V40.05H170.255H172.124V30.2397V20.4294H170.255H168.387V30.2397Z" fill="white"/>
<path d="M28.8451 42.058C28.6115 42.7821 28.4947 43.4128 28.5414 43.4829C28.6582 43.5997 32.4422 43.0858 32.4422 42.9456C32.4422 42.8522 29.4991 40.75 29.3589 40.75C29.3122 40.75 29.0786 41.334 28.8451 42.058Z" fill="white"/>
</svg>
