<svg width="238" height="49" viewBox="0 0 238 49" fill="none" xmlns="http://www.w3.org/2000/svg">
<g clip-path="url(#clip0_3763_41204)">
<path d="M15.6077 5.97088C10.3948 8.71122 5.93292 11.1542 5.71203 11.4091C5.33652 11.8552 5.31443 12.5562 5.3807 22.4129C5.44697 32.8856 5.44697 32.9494 5.955 34.0116C6.79437 35.7748 7.47913 36.5607 9.93096 38.5363C14.3929 42.1263 18.7664 44.9092 23.3608 47.1185C26.0114 48.3931 25.7464 48.4143 29.7445 46.3112C34.2284 43.9321 38.5136 41.1067 42.0477 38.1539C44.0357 36.497 44.9634 35.3711 45.6041 33.8629C46.0679 32.7582 46.09 32.4609 46.1562 22.3067C46.2225 12.5349 46.2005 11.8552 45.8249 11.4091C45.2507 10.7293 26.387 0.978792 25.6801 1.00003C25.371 1.00003 20.8427 3.23054 15.6077 5.97088ZM33.5437 8.52003C37.3429 10.4956 40.4133 12.1526 40.347 12.1951C40.126 12.4075 26.0336 18.398 25.7686 18.398C25.4372 18.398 11.4992 12.5137 11.2342 12.2588C11.1458 12.1738 14.3708 10.3682 18.413 8.24388C24.9071 4.86625 25.8126 4.44139 26.2102 4.67506C26.4532 4.82376 29.7665 6.54444 33.5437 8.52003ZM10.9912 15.7851L12.8467 16.5924V21.7119C12.8467 27.0651 12.935 27.6599 13.8627 28.9982C15.3648 31.1438 23.8909 36.667 25.7023 36.667C27.3589 36.667 33.2786 33.0768 36.5477 30.1029C38.5579 28.276 38.5799 28.1911 38.6462 21.988L38.7124 16.5711L40.5236 15.7851C41.5176 15.3603 42.4453 14.9991 42.5558 14.9991C42.7104 14.9991 42.7546 17.9307 42.7326 23.4326C42.6663 32.9707 42.6663 33.0768 41.0317 34.6063C38.2928 37.198 31.865 41.5528 27.8448 43.5497L25.7464 44.6117L23.3388 43.3797C17.5073 40.427 10.3286 35.1587 9.2683 33.0768C8.76026 32.1209 8.76026 31.9297 8.69399 23.5389C8.64981 17.2934 8.69399 14.9991 8.87071 14.9991C9.00324 14.9991 9.95304 15.3603 10.9912 15.7851ZM21.1078 20.1187L25.6581 22.0731V27.5538C25.6581 31.6748 25.5918 33.0556 25.393 33.0556C24.7524 33.0556 20.9532 30.6765 18.3246 28.6158C16.2041 26.9589 16.1599 26.8314 16.1599 22.1368C16.1599 19.97 16.2483 18.1856 16.3587 18.1856C16.4692 18.1856 18.5897 19.0565 21.1078 20.1187Z" fill="white"/>
<path d="M145.244 10.731C144.493 11.0496 144.051 11.8144 144.051 12.7915C144.051 13.9811 144.206 14.321 144.956 14.6822C146.105 15.2557 147.74 15.0221 148.402 14.1723C148.888 13.5775 148.756 11.8993 148.181 11.2833C147.629 10.646 146.105 10.3699 145.244 10.731Z" fill="white"/>
<path d="M125.496 22.7582V32.8485H127.595H129.693V28.8124V24.7761H133.89H138.087V22.9706V21.165H133.89H129.693V18.6158V16.0666H134.552H139.412V14.3672V12.6677H132.454H125.496V22.7582Z" fill="white"/>
<path d="M57.9062 22.9672V33.0575H64.2015H70.4968V31.2519V29.425L66.2557 29.4462L61.9927 29.4887L61.9264 21.1828L61.8822 12.8767H59.8942H57.9062V22.9672Z" fill="white"/>
<path d="M159.226 17.2107C158.21 17.5718 157.835 17.848 157.04 18.9101L156.421 19.7385V18.549V17.3382H154.433H152.445V25.0918V32.8455H154.433H156.421V27.4285C156.421 21.3743 156.488 21.0557 157.835 20.4396C158.255 20.2484 159.05 20.0997 159.602 20.0997C160.397 20.0997 160.751 20.2272 161.325 20.7158L162.054 21.3318L162.12 27.0887L162.186 32.8455H164.174H166.162L166.096 26.6213L166.03 20.4184L165.389 19.2924C164.528 17.8055 163.335 17.1045 161.435 16.9982C160.596 16.9345 159.757 17.0196 159.226 17.2107Z" fill="white"/>
<path d="M173.429 17.1885C171.64 17.6771 169.474 19.2916 169.74 19.9502C169.806 20.12 170.314 20.6087 170.866 21.0548L171.882 21.8407L172.743 21.0973C174.333 19.7165 176.653 19.5678 177.89 20.7361C178.442 21.2671 178.508 21.5009 178.508 22.6268V23.9226H176.123C172.478 23.9226 170.557 24.6448 169.497 26.3655C169.077 27.0878 169.011 27.4702 169.055 28.8297C169.099 30.1468 169.231 30.5929 169.717 31.2939C170.579 32.5685 171.993 33.1632 174.092 33.1421C176.411 33.1421 177.691 32.4622 178.574 30.8265L178.906 30.1892L179.282 31.0814C179.833 32.3773 180.718 32.8446 182.683 32.8446H184.252V31.3788V29.8919L183.478 29.8282L182.706 29.7644L182.64 25.4095C182.595 21.4797 182.529 20.9485 182.11 20.0563C181.137 18.017 179.502 17.1461 176.411 16.9973C175.173 16.9549 174.047 17.0187 173.429 17.1885ZM178.508 27.4488C178.508 28.2136 178.399 29.0209 178.288 29.2546C177.802 30.1043 175.881 30.6353 174.511 30.2954C173.45 30.0193 172.987 29.4032 172.987 28.2773C172.987 26.7266 174.113 26.1319 177.14 26.0682L178.508 26.0468V27.4488Z" fill="white"/>
<path d="M193.687 17.212C192.65 17.573 191.855 18.2528 191.301 19.2513L190.904 19.9947L190.882 18.6564V17.3394H188.894H186.906V25.093V32.8467H188.894H190.882V27.3449C190.882 22.0978 190.904 21.8428 191.346 21.2906C191.964 20.5259 192.892 20.101 193.952 20.101C195.123 20.101 195.807 20.4196 196.316 21.2269C196.692 21.8428 196.735 22.4378 196.801 27.3661L196.891 32.8467H198.856H200.822V27.791C200.822 22.2678 200.645 20.6957 199.873 19.2513C198.879 17.3818 195.918 16.4047 193.687 17.212Z" fill="white"/>
<path d="M208.659 17.2139C206.472 17.8724 204.927 19.2745 204.132 21.2926C203.446 23.0133 203.313 25.6899 203.777 27.6443C204.683 31.3405 207.114 33.1673 211.09 33.1461C213.121 33.125 214.602 32.6363 215.794 31.5104C216.412 30.9582 217.385 29.5136 217.385 29.1738C217.385 29.0675 214.469 27.708 214.424 27.7929C214.027 28.4728 213.011 29.5136 212.524 29.7685C210.957 30.5545 208.836 29.896 208.063 28.3877C207.554 27.4317 207.488 23.0133 207.975 21.9511C208.614 20.5067 210.162 19.7631 211.818 20.1243C212.569 20.2729 213.409 20.9528 213.96 21.8873C214.159 22.2273 214.313 22.206 215.771 21.5475L217.385 20.8465L216.744 19.7843C216.391 19.1895 215.683 18.4248 215.198 18.085C213.541 17.0016 210.647 16.6191 208.659 17.2139Z" fill="white"/>
<path d="M224.17 17.1254C222.006 17.6564 220.217 19.1859 219.356 21.289C218.648 23.0097 218.604 26.8546 219.245 28.5329C219.952 30.3597 221.056 31.5705 222.778 32.4203C224.215 33.1213 224.414 33.1637 226.423 33.1425C229.007 33.1213 230.598 32.5902 232.079 31.2944L233.094 30.4022L232.013 29.2339L230.908 28.0654L230.157 28.7241C229.052 29.7437 228.169 30.0836 226.733 30.0836C224.48 30.0836 222.911 28.7452 222.911 26.8546V26.0474H228.169C231.062 26.0474 233.492 26.0049 233.537 25.9624C233.58 25.8986 233.58 25.0064 233.492 23.9656C233.182 19.6532 230.73 17.1466 226.688 16.998C225.76 16.9554 224.634 17.0191 224.17 17.1254ZM228.08 20.333C228.809 20.8854 229.229 21.6502 229.428 22.7973L229.582 23.7107H226.247H222.911V23.0946C222.911 21.8625 223.772 20.503 224.79 20.0993C225.694 19.7383 227.462 19.8658 228.08 20.333Z" fill="white"/>
<path d="M77.6736 17.4243C76.26 17.8492 75.4868 18.3165 74.6033 19.2513C71.6654 22.3952 71.8864 28.7681 75.045 31.5721C75.5973 32.0608 76.3925 32.5918 76.8342 32.783C79.8383 33.9726 84.1234 33.2928 86.1556 31.2748L86.9066 30.5313L85.8243 29.363L84.742 28.1945L84.1014 28.8318C82.9749 29.9577 81.8704 30.3613 80.28 30.2552C78.2037 30.1277 76.9447 29.0655 76.7459 27.2386L76.6133 26.2614H82.0914H87.5692L87.4147 24.4559C87.2159 21.8642 86.6195 20.4621 85.0733 18.9964C84.1234 18.1042 83.505 17.7218 82.6215 17.4669C81.2519 17.0633 78.9106 17.042 77.6736 17.4243ZM81.495 20.3135C82.5552 20.7808 83.2842 21.9704 83.3062 23.2237V23.9247H79.9929H76.6796V23.3299C76.6796 22.2465 77.5853 20.887 78.6676 20.3559C79.8604 19.7823 80.28 19.7823 81.495 20.3135Z" fill="white"/>
<path d="M93.5833 17.4025C92.1695 17.8698 91.3744 18.3159 90.6234 19.1444C90.2478 19.5693 89.9387 19.9729 89.9387 20.0578C89.9387 20.1429 90.4466 20.6313 91.043 21.12L92.1696 22.0547L93.031 21.3112C94.3343 20.164 95.9247 19.8454 97.3383 20.3978C98.3102 20.8013 98.7521 21.4812 98.9287 22.8407L99.0612 23.924H97.5371C94.0913 23.9452 91.3966 24.6251 90.3363 25.7722C88.9005 27.3017 88.9447 30.4244 90.4466 31.9539C92.5671 34.1418 97.2942 33.7595 98.6636 31.2954C99.1497 30.4456 99.4368 30.2969 99.4368 30.913C99.4368 31.444 100.21 32.3574 100.983 32.7398C101.358 32.931 102.22 33.0585 103.081 33.0585H104.517V31.4652V29.872H103.744H102.971V26.0483C102.971 21.6935 102.772 20.4827 101.844 19.2507C100.828 17.891 99.1937 17.2751 96.5653 17.19C95.262 17.1476 94.1355 17.2325 93.5833 17.4025ZM98.9509 27.5354C99.0171 28.9161 98.6858 29.5959 97.7359 30.1483C96.9187 30.5944 94.8864 30.6793 94.1355 30.2969C93.2078 29.8083 92.9647 28.1513 93.7159 27.2379C94.3123 26.5157 95.1957 26.282 97.228 26.3246L98.8846 26.3669L98.9509 27.5354Z" fill="white"/>
<path d="M113.684 17.5337C112.801 17.916 111.873 18.7657 111.409 19.573C111.21 19.9342 111.166 19.7854 111.144 18.7657V17.5548H109.156H107.168V28.2826V39.0103H109.156H111.144V34.7192V30.4281L111.718 31.2779C113.287 33.6145 116.578 34.082 119.251 32.3613C121.857 30.683 122.851 25.7759 121.504 21.2937C121.128 20.0828 120.863 19.6367 119.913 18.7445C119.184 18.0435 118.433 17.5548 117.859 17.385C116.534 17.0026 114.7 17.0664 113.684 17.5337ZM116.777 21.1662C117.793 22.1221 118.058 23.1206 117.947 25.7335C117.859 28.1764 117.483 29.0474 116.224 29.7484C114.678 30.6193 112.182 30.1308 111.475 28.8137C110.989 27.9003 110.989 22.3133 111.497 21.6123C112.204 20.6564 113.132 20.2952 114.612 20.3589C115.849 20.444 116.092 20.5289 116.777 21.1662Z" fill="white"/>
<path d="M140.523 19.037V20.7365H142.401H144.279V26.7907V32.8449H146.377H148.475V25.0912V17.3376H144.499H140.523V19.037Z" fill="white"/>
</g>
<defs>
<clipPath id="clip0_3763_41204">
<rect width="228.286" height="47" fill="white" transform="translate(5.35156 1)"/>
</clipPath>
</defs>
</svg>
