<svg width="150" height="49" viewBox="0 0 150 49" fill="none" xmlns="http://www.w3.org/2000/svg">
<mask id="mask0_3763_41191" style="mask-type:luminance" maskUnits="userSpaceOnUse" x="0" y="10" width="150" height="30">
<path d="M149.964 10H0V40H149.964V10Z" fill="white"/>
</mask>
<g mask="url(#mask0_3763_41191)">
<path d="M1.042 10.2275C0.548834 10.3327 0.139601 10.7925 0.0451639 11.3409C0.00843783 11.5459 -0.00730193 12.9584 0.00319123 15.3569C0.018931 18.9741 0.018931 19.0627 0.129108 19.3064C0.249779 19.589 0.501615 19.8715 0.748204 20.0154C0.889862 20.0986 1.1207 20.1096 2.61597 20.1262C4.10599 20.1429 4.34733 20.1318 4.5467 20.0488C4.84051 19.9324 5.10808 19.6832 5.25498 19.3951C5.37041 19.168 5.37041 19.1569 5.38615 15.3459C5.39665 12.7036 5.38615 11.4351 5.34418 11.2412C5.27073 10.8645 5.04513 10.5543 4.70409 10.3549L4.42604 10.1943L2.85207 10.1832C1.98639 10.1776 1.17317 10.1943 1.042 10.2275Z" fill="white"/>
<path d="M18.2675 10.222C17.8477 10.3161 17.5539 10.5543 17.3389 10.9698L17.2287 11.1914L17.2129 16.4925L17.2025 21.7991H9.11747C1.98217 21.7991 1.01681 21.8102 0.848917 21.8823C0.534122 22.0208 0.31377 22.2313 0.16162 22.5359L0.0199636 22.824L0.00422382 30.1082C-0.00626934 34.1132 0.00422382 37.5476 0.0199636 37.7359C0.0671819 38.1956 0.298031 38.6055 0.644301 38.8327L0.901383 38.9988L2.58553 39.0155C3.7555 39.0266 4.33787 39.01 4.49003 38.9656C4.76809 38.8881 5.10387 38.589 5.25602 38.2842L5.37144 38.0572L5.38718 32.7228L5.39768 27.3939H11.3H17.2025L17.2129 32.7228L17.2287 38.0572L17.3441 38.2842C17.491 38.5779 17.8214 38.877 18.0891 38.96C18.2202 39.0044 18.8394 39.0266 19.9412 39.0266H21.5886L21.8613 38.8825C22.1918 38.7053 22.4437 38.384 22.5382 38.0129C22.5958 37.7803 22.6064 35.3097 22.6064 24.5965C22.6064 10.0724 22.6326 11.1304 22.2653 10.6817C22.1656 10.5543 21.9715 10.3937 21.8298 10.3217C21.5886 10.1998 21.5413 10.1943 20.0355 10.1832C19.1856 10.1777 18.3881 10.1943 18.2675 10.222Z" fill="white"/>
<path d="M26.6061 10.222C25.9658 10.3604 25.5619 10.9476 25.6092 11.6733C25.6196 11.8672 25.6669 12.0998 25.7141 12.1995C25.8137 12.41 30.5461 19.6111 30.7036 19.7939C30.7665 19.8604 30.9449 19.9878 31.1022 20.0709L31.3962 20.2204H33.3636C35.5409 20.2204 35.5828 20.2149 35.9448 19.8715C36.2597 19.5724 36.3751 19.2954 36.3751 18.8357C36.3751 18.5199 36.3542 18.3981 36.244 18.1931C36.055 17.833 31.4853 10.8978 31.2754 10.654C31.181 10.5432 30.9921 10.3937 30.8558 10.3217C30.6144 10.1943 30.5881 10.1943 28.7203 10.1832C27.6815 10.1777 26.7319 10.1943 26.6061 10.222Z" fill="white"/>
<path d="M46.9741 10.2186C46.6488 10.2795 46.3813 10.4401 46.1923 10.6894C45.8828 11.0993 36.2764 25.7564 36.1557 26.0058L36.0352 26.2494V32.1821C36.0352 35.9932 36.0561 38.1868 36.0875 38.3142C36.161 38.5856 36.5073 38.99 36.7853 39.134C37.0004 39.2447 37.0948 39.2503 38.7528 39.2503C40.4213 39.2503 40.5052 39.2447 40.7308 39.134C40.8618 39.0675 41.0508 38.9123 41.1504 38.7905C41.5021 38.3585 41.4915 38.5524 41.4915 32.9521V27.8947L46.6384 20.0453C50.1221 14.7442 51.8167 12.1186 51.8639 11.9468C52.0475 11.3264 51.6961 10.5731 51.0927 10.285C50.9353 10.213 50.6205 10.1964 49.0466 10.1909C48.0235 10.1853 47.0895 10.1964 46.9741 10.2186Z" fill="white"/>
<path d="M55.9831 10.2241C55.6945 10.285 55.4898 10.4013 55.2905 10.6174C54.9442 10.983 54.9442 10.9664 54.9285 12.8386C54.918 13.9354 54.9337 14.6168 54.9705 14.7608C55.0491 15.0821 55.3273 15.4311 55.6263 15.5917L55.8834 15.7357L62.2633 15.7634C68.1761 15.7967 68.6586 15.8022 68.9525 15.8964C69.5139 16.0736 69.8969 16.3063 70.2537 16.6996C70.7468 17.2369 70.8886 17.5803 70.9725 18.4334C71.1036 19.8071 70.5684 20.8818 69.4929 21.4135C68.6167 21.8457 69.0155 21.818 62.0532 21.8512L55.8362 21.8843L55.6263 22.0063C55.3534 22.1614 55.1593 22.3829 55.0282 22.6876C54.9285 22.9202 54.918 23.0477 54.918 24.571C54.918 26.1719 54.9232 26.2106 55.0439 26.4876C55.1856 26.8145 55.5161 27.1302 55.8047 27.2188C55.9516 27.2687 57.6253 27.2853 62.0849 27.2853C65.7837 27.2853 68.3859 27.3074 68.7268 27.3408C70.9725 27.5678 72.2683 28.72 72.2789 30.5036C72.2946 32.2652 71.2925 33.2013 69.1414 33.4285C68.7951 33.4672 66.303 33.4893 62.2685 33.4893C56.0145 33.4893 55.9359 33.4949 55.705 33.6057C55.4164 33.7442 55.2066 33.9492 55.0596 34.2372C54.9494 34.4477 54.9442 34.5363 54.9285 36.1871C54.9128 37.8599 54.918 37.9208 55.0282 38.1978C55.1698 38.5413 55.5161 38.8792 55.8204 38.9678C55.9883 39.0176 57.7197 39.0287 62.814 39.0176C68.9683 38.9955 69.6294 38.9844 70.133 38.9012C73.3491 38.3307 75.7258 36.7853 76.8538 34.5252C77.4781 33.2623 77.751 31.7113 77.6356 30.0771C77.5464 28.875 77.3627 28.1384 76.8958 27.1579C76.4027 26.1165 75.6787 25.1804 74.8654 24.5378C74.645 24.3606 74.4404 24.1942 74.4142 24.1722C74.3879 24.15 74.4823 24.0005 74.624 23.8398C76.7489 21.4524 77.027 16.971 75.2326 14.1016C74.7028 13.2596 73.8632 12.3733 73.0396 11.7862C72.2683 11.2378 70.9934 10.6894 70.0018 10.4789C68.7217 10.2075 68.8109 10.2075 62.3156 10.1908C58.9526 10.1853 56.1038 10.1964 55.9831 10.2241Z" fill="white"/>
<path d="M83.217 10.2241C82.9232 10.2905 82.7342 10.4013 82.5401 10.6229C82.1833 11.0217 82.1781 11.0328 82.1624 12.7722C82.1466 13.8191 82.1624 14.4451 82.2044 14.6389C82.2778 15.0101 82.5034 15.3258 82.8181 15.5252L83.07 15.6803L89.4973 15.708C95.7716 15.7413 95.9349 15.7413 96.4017 15.8576C97.3093 16.0792 97.9541 16.4448 98.547 17.0763C99.1296 17.6967 99.3923 18.3891 99.4494 19.4471C99.5021 20.494 99.3344 21.203 98.8988 21.818C98.2427 22.732 97.1779 23.2582 95.6826 23.4022C95.2996 23.441 92.9443 23.4632 89.1248 23.4632H83.1698L82.8969 23.6071C82.7448 23.6847 82.5506 23.8397 82.4667 23.9506C82.1362 24.3716 82.1466 24.0614 82.1624 31.3345L82.1781 37.9486L82.2883 38.1702C82.4352 38.4526 82.6451 38.6741 82.9126 38.8294C83.1173 38.9401 83.1801 38.9457 84.8539 38.9457C86.4436 38.9457 86.6009 38.9345 86.7686 38.8405C87.0261 38.6963 87.2828 38.4305 87.4142 38.1702C87.5292 37.9486 87.5292 37.943 87.5456 33.445L87.5612 28.9472H90.8033C93.8251 28.9472 94.0507 28.9526 94.1241 29.0413C94.1665 29.0967 95.4518 31.2349 96.973 33.794C98.5055 36.3588 99.8323 38.5301 99.9377 38.6299C100.268 38.9568 100.442 38.9789 102.545 38.9623C104.35 38.9457 104.433 38.9401 104.634 38.8294C104.901 38.6741 105.111 38.4526 105.252 38.1702C105.393 37.8875 105.404 37.3115 105.279 37.0567C105.226 36.9625 104.135 35.1789 102.845 33.0961C101.553 31.0133 100.3 28.9858 100.058 28.5982L99.6231 27.8891L99.8219 27.806C100.389 27.5568 101.05 27.1911 101.527 26.8643C102.168 26.4267 103.096 25.4684 103.489 24.8479C104.497 23.2526 104.938 21.2917 104.812 18.9541C104.68 16.622 103.946 14.7276 102.592 13.2319C101.071 11.548 99.3655 10.6617 96.9212 10.2961C96.4276 10.2185 95.431 10.2075 89.8906 10.1908C86.3442 10.1853 83.3376 10.1964 83.217 10.2241Z" fill="white"/>
<path d="M111.031 10.2209C110.742 10.2874 110.548 10.3926 110.354 10.6197C109.991 11.0186 109.991 11.0186 109.976 12.8355C109.965 13.8935 109.981 14.5582 110.019 14.7022C110.102 15.0291 110.375 15.3725 110.695 15.5498L110.972 15.7049H112.305H113.639V26.7006C113.639 35.9069 113.649 37.7293 113.711 37.8845C113.812 38.1449 114.089 38.4606 114.342 38.5991C114.546 38.7154 114.63 38.7209 116.088 38.7375C117.112 38.7486 117.72 38.7375 117.915 38.6932C118.292 38.6101 118.602 38.3608 118.79 37.9786L118.937 37.685V24.4792C118.937 12.7413 118.927 11.2457 118.858 11.0684C118.727 10.7361 118.528 10.5034 118.24 10.3428L117.967 10.1932L114.61 10.1821C112.762 10.1821 111.151 10.1987 111.031 10.2209Z" fill="white"/>
<path d="M126.646 10.2241C126.157 10.3293 125.748 10.7725 125.643 11.3098C125.606 11.5037 125.59 12.1518 125.601 13.1433C125.616 14.8384 125.627 14.8882 125.958 15.287C126.052 15.3978 126.231 15.5474 126.347 15.6139L126.561 15.7357L132.464 15.769C138.97 15.8022 138.539 15.78 139.609 16.1512C141.053 16.6608 142.243 17.6745 143.188 19.2144C144.221 20.8874 144.709 23.1418 144.541 25.4739C144.363 27.9113 143.633 29.7448 142.238 31.2737C141.188 32.4203 140.118 33.0406 138.639 33.3619C138.262 33.4396 137.511 33.4561 132.358 33.4838C126.96 33.517 126.499 33.5226 126.347 33.6111C126.1 33.7553 125.848 34.0378 125.727 34.3202C125.622 34.5585 125.616 34.6636 125.616 36.2867V38.0039L125.774 38.303C125.942 38.6188 126.136 38.8071 126.445 38.9456C126.729 39.0676 137.71 39.073 138.722 38.9456C141.188 38.641 143.529 37.5775 145.318 35.9433C147.924 33.5669 149.468 30.4094 149.893 26.5928C149.992 25.6844 149.976 23.2747 149.86 22.4106C149.541 19.9568 148.874 18.0124 147.736 16.201C146.387 14.0573 144.557 12.3678 142.579 11.4317C141.871 11.0993 140.622 10.6561 139.94 10.501C138.633 10.2019 138.733 10.2075 132.595 10.1908C129.331 10.1853 126.776 10.1964 126.646 10.2241Z" fill="white"/>
</g>
</svg>
