<svg width="32" height="32" viewBox="0 0 32 32" fill="none" xmlns="http://www.w3.org/2000/svg">
<path d="M29.4407 0H2.73428C1.275 0 0 1.05 0 2.49214V29.2579C0 30.7079 1.275 32 2.73428 32H29.4328C30.9 32 32 30.6993 32 29.2579V2.49214C32.0085 1.05 30.9 0 29.4407 0ZM9.91927 26.6736H5.33499V12.42H9.91927V26.6736ZM7.7857 10.2529H7.75284C6.2857 10.2529 5.33571 9.16072 5.33571 7.79357C5.33571 6.40143 6.31071 5.335 7.8107 5.335C9.3107 5.335 10.2286 6.39357 10.2614 7.79357C10.2607 9.16072 9.3107 10.2529 7.7857 10.2529ZM26.6735 26.6736H22.0893V18.88C22.0893 17.0129 21.4221 15.7371 19.7635 15.7371C18.4964 15.7371 17.7464 16.5943 17.4128 17.4293C17.2878 17.7293 17.2543 18.1379 17.2543 18.555V26.6736H12.67V12.42H17.2543V14.4036C17.9214 13.4536 18.9635 12.0864 21.3885 12.0864C24.3978 12.0864 26.6742 14.07 26.6742 18.3464L26.6735 26.6736Z" fill="white"/>
</svg>
