<svg width="24" height="18" viewBox="0 0 24 18" fill="none" xmlns="http://www.w3.org/2000/svg">
<path d="M23.3301 3.15335C23.1082 1.92878 22.0511 1.03699 20.8244 0.758575C18.9886 0.369232 15.5911 0.0908203 11.9152 0.0908203C8.24144 0.0908203 4.78956 0.369232 2.9516 0.758575C1.72703 1.03699 0.667754 1.87222 0.445894 3.15335C0.22186 4.54542 0 6.4943 0 9.00001C0 11.5057 0.22186 13.4546 0.500272 14.8467C0.724307 16.0712 1.7814 16.963 3.00598 17.2414C4.95487 17.6308 8.29581 17.9092 11.9717 17.9092C15.6476 17.9092 18.9886 17.6308 20.9375 17.2414C22.162 16.963 23.2191 16.1278 23.4432 14.8467C23.665 13.4546 23.9434 11.4492 24 9.00001C23.8869 6.4943 23.6085 4.54542 23.3301 3.15335ZM8.90919 12.8978V5.10224L15.702 9.00001L8.90919 12.8978Z" fill="white"/>
</svg>
