<svg width="114" height="49" viewBox="0 0 114 49" fill="none" xmlns="http://www.w3.org/2000/svg">
<mask id="mask0_3763_41225" style="mask-type:luminance" maskUnits="userSpaceOnUse" x="0" y="0" width="114" height="49">
<path d="M113.167 0H0V49H113.167V0Z" fill="white"/>
</mask>
<g mask="url(#mask0_3763_41225)">
<path d="M18.7409 33.6644L20.1121 33.7105C20.2949 33.0641 20.7063 31.8325 21.3462 30.0162C22.0167 28.1997 22.489 26.999 22.7632 26.4141C19.5941 29.4312 17.1411 31.2476 15.4041 31.8633C14.4594 32.202 13.4995 32.3713 12.5243 32.3713C10.9093 32.3713 9.65991 31.8325 8.77619 30.755C7.89247 29.6775 7.45062 28.1689 7.45062 26.2293C7.45062 23.4584 8.71524 19.7641 11.2445 15.1459C13.7738 10.4971 16.6534 6.86422 19.8836 4.24731L21.7119 5.95599C14.947 13.3142 11.5645 19.4562 11.5645 24.3821C11.5645 27.2453 12.6767 28.6768 14.9013 28.6768C17.1258 28.6768 19.2894 27.4454 21.392 24.9825C23.4946 22.5195 25.6734 18.7018 27.9284 13.5296C28.8426 11.4053 29.5434 10.0045 30.0311 9.32718C30.5186 8.64987 30.9909 8.31121 31.448 8.31121C31.9051 8.31121 32.2555 8.44974 32.4994 8.72682C32.7736 9.00391 32.9107 9.37336 32.9107 9.83516C32.9107 11.8055 31.5089 14.7304 28.7054 18.6095C26.7551 22.6734 24.7897 27.7225 22.809 33.7567C24.2412 33.8491 25.7648 34.2032 27.3799 34.8189L26.9228 36.3891L22.0775 35.6963C20.2797 40.1296 18.1009 43.4392 15.5411 45.6251C13.012 47.8418 9.97987 48.9501 6.44501 48.9501C4.61665 48.9501 3.093 48.4421 1.87409 47.4262C0.624694 46.441 0 45.1941 0 43.6855C0 40.9147 1.84361 38.5441 5.53082 36.5738C9.21805 34.6342 13.6213 33.6644 18.7409 33.6644ZM8.50194 45.7637C10.9702 45.7637 13.149 44.7478 15.0383 42.7158C16.9581 40.7146 18.3752 38.3595 19.2894 35.6501C15.206 35.6501 11.7778 36.3429 9.00474 37.7283C6.23171 39.1445 4.84518 40.8532 4.84518 42.8543C4.84518 43.7163 5.18039 44.4091 5.8508 44.9325C6.55167 45.4866 7.43539 45.7637 8.50194 45.7637Z" fill="white"/>
<path d="M41.3904 20.3673C42.1827 21.6912 42.5789 23.1535 42.5789 24.7546C42.5789 27.2483 41.7256 29.4804 40.0191 31.4506C38.3126 33.3902 36.3015 34.3601 33.9855 34.3601C32.2181 34.3601 30.8316 33.8521 29.8259 32.8362C28.8508 31.7893 28.3633 30.3577 28.3633 28.5413C28.3633 25.6166 29.4908 22.9997 31.7457 20.6906C34.0007 18.3508 36.53 17.1809 39.3335 17.1809C39.8515 17.1809 40.2171 17.1963 40.4305 17.2271L40.5676 18.751C38.1298 18.751 36.1033 19.4592 34.4883 20.8754C32.8732 22.2916 32.0657 24.108 32.0657 26.3247C32.0657 27.6485 32.3857 28.726 33.0256 29.5573C33.6655 30.3577 34.595 30.758 35.8139 30.758C37.0633 30.758 38.0536 30.2038 38.785 29.0955C39.5163 27.9872 39.882 26.6941 39.882 25.2163C39.882 23.7077 39.5925 22.3377 39.0135 21.1063L41.3904 20.3673Z" fill="white"/>
<path d="M55.8845 27.5242L56.9815 28.4477C56.2502 30.141 55.077 31.4956 53.4619 32.5117C51.8469 33.5276 50.2774 34.0356 48.7538 34.0356C47.2606 34.0356 46.0113 33.5584 45.0057 32.604C44.0305 31.6496 43.543 30.3411 43.543 28.6786C43.543 27.0161 44.259 25.2151 45.6913 23.2755C47.1235 21.336 48.9671 19.7351 51.2221 18.4727C53.5076 17.2105 55.7473 16.5793 57.9413 16.5793C58.2461 16.5793 58.7033 16.6101 59.3126 16.6717L59.1756 18.4727C55.8235 18.6267 53.0352 19.6581 50.8107 21.5668C48.6166 23.4756 47.5196 25.5076 47.5196 27.6627C47.5196 28.5555 47.7939 29.279 48.3424 29.8331C48.8909 30.3873 49.6071 30.6644 50.4908 30.6644C51.8926 30.6644 53.6904 29.6177 55.8845 27.5242Z" fill="white"/>
<path d="M78.6572 29.3708L79.8 30.3868C78.0325 33.3116 76.1584 34.774 74.1777 34.774C72.9588 34.774 71.7094 33.8658 70.4295 32.0493C69.1496 30.2329 68.5097 28.7397 68.5097 27.5698C68.5097 26.8309 69.6068 26.092 71.8008 25.3532C72.6236 25.0761 73.3701 24.6604 74.0406 24.1062C74.7414 23.5213 75.0919 22.9209 75.0919 22.3053C75.0919 21.6895 74.9242 21.2276 74.5891 20.9198C74.2539 20.5812 73.8272 20.4118 73.3092 20.4118C69.9571 20.7197 66.4528 25.2762 62.7961 34.0812L60.0078 33.1115C60.0078 31.7876 61.7752 26.4307 65.31 17.0406C68.8753 7.65058 71.4046 1.97037 72.8978 0L75.1376 0.831251C71.0238 8.0662 67.5803 16.4711 64.8072 26.0458C67.1842 22.4438 69.2258 20.0424 70.9323 18.8417C72.6388 17.6409 74.2691 17.0406 75.8232 17.0406C76.7679 17.0406 77.5145 17.333 78.063 17.918C78.642 18.503 78.9315 19.2572 78.9315 20.1809C78.9315 21.0737 78.7029 21.8896 78.2458 22.6284C77.8192 23.3674 77.1945 24.0138 76.3717 24.568C75.1832 25.3685 73.7206 26.1536 71.9836 26.9233C72.2579 28.3703 72.7302 29.4632 73.4006 30.2021C74.071 30.9409 74.8329 31.3104 75.6861 31.3104C76.1432 31.3104 77.1335 30.6638 78.6572 29.3708Z" fill="white"/>
<path d="M93.7009 28.6325L94.7523 29.4638C93.8076 30.7876 92.5125 31.8959 90.867 32.7888C89.2215 33.6508 87.6217 34.0818 86.0675 34.0818C84.5134 34.0818 83.2639 33.62 82.3193 32.6964C81.3746 31.7727 80.9023 30.5567 80.9023 29.0481C80.9023 26.2157 82.3803 23.4294 85.3362 20.6894C88.3225 17.9494 91.3393 16.5793 94.3866 16.5793C96.3979 16.5793 97.4034 17.3798 97.4034 18.9807C97.4034 20.6432 96.3369 22.3211 94.2038 24.0144C92.1011 25.7077 89.13 27.2471 85.2904 28.6325C85.5647 29.3406 85.9914 29.8947 86.5703 30.295C87.1493 30.6952 87.7435 30.8954 88.353 30.8954C89.6633 30.8954 91.446 30.141 93.7009 28.6325ZM85.0619 27.2471C87.5302 26.3851 89.6481 25.3075 91.4155 24.0144C93.1829 22.7214 94.0666 21.536 94.0666 20.4585C94.0666 20.0583 93.9143 19.7043 93.6096 19.3964C93.3048 19.0885 92.9544 18.9346 92.5583 18.9346C91.126 18.9346 89.5718 19.8427 87.8959 21.6592C86.2504 23.4448 85.3057 25.3075 85.0619 27.2471Z" fill="white"/>
<path d="M109.003 28.9071L110.009 30.0615C109.247 31.2623 108.318 32.2013 107.221 32.8786C106.154 33.5559 105.072 33.8946 103.975 33.8946C102.878 33.8946 102.01 33.5867 101.37 32.971C100.73 32.3244 100.41 31.4471 100.41 30.3387C100.41 27.7526 101.37 24.1813 103.29 19.6248C101.736 19.871 100.182 20.2405 98.6274 20.7331L98.3074 18.9321L98.2617 18.8859C99.7852 18.2393 101.781 17.716 104.25 17.3158C104.493 16.8539 105.042 15.7302 105.895 13.9446C107.602 10.4041 108.821 8.11048 109.552 7.06372L111.517 7.84879C111.213 8.5261 110.679 9.66522 109.918 11.2661C109.156 12.8363 108.302 14.6219 107.358 16.623C108.729 16.5306 109.811 16.4846 110.603 16.4846C111.396 16.4846 112.005 16.6076 112.432 16.8539V18.8397C112.005 18.7473 111.38 18.7011 110.558 18.7011C109.765 18.7011 108.333 18.8397 106.261 19.1168C104.463 23.1806 103.564 26.1363 103.564 27.9835C103.564 28.6915 103.777 29.2765 104.204 29.7384C104.661 30.2001 105.255 30.431 105.987 30.431C106.748 30.431 107.754 29.923 109.003 28.9071Z" fill="white"/>
</g>
</svg>
